<svg width="450" height="271" viewBox="0 0 450 271" fill="none" xmlns="http://www.w3.org/2000/svg">
<path fill-rule="evenodd" clip-rule="evenodd" d="M129.808 0H61.8132C27.6747 0 0 28.5144 0 62.9203C0 97.3259 27.6747 125.841 61.8132 125.841H129.808V90.9541H61.8132C47.2384 90.9541 34.6154 78.5115 34.6154 62.9203C34.6154 47.3289 47.2385 34.8865 61.8132 34.8865H129.808V0Z" fill="white"/>
<path fill-rule="evenodd" clip-rule="evenodd" d="M129.808 138.3H61.8132C27.6747 138.3 0 166.815 0 201.22C0 235.626 27.6747 264.141 61.8132 264.141H129.808V229.254H61.8132C47.2384 229.254 34.6154 216.811 34.6154 201.22C34.6154 185.629 47.2385 173.187 61.8132 173.187H129.808V138.3Z" fill="white"/>
<path fill-rule="evenodd" clip-rule="evenodd" d="M144.025 125.841H215.728C249.866 125.841 277.541 97.3259 277.541 62.9203C277.541 28.5144 249.867 0 215.728 0H144.025V34.8865H215.728C230.303 34.8865 242.926 47.3288 242.926 62.9203C242.926 78.5115 230.303 90.9541 215.728 90.9541H144.025V125.841Z" fill="#00CCFF"/>
<path d="M178.022 0H144.025V125.841H178.022V0Z" fill="#00CCFF"/>
<path d="M156.542 142.894H147.328V165.088H150.979V156.619H156.542C161.352 156.619 164.365 153.991 164.365 149.728C164.365 145.523 161.352 142.894 156.542 142.894ZM156.078 153.466H150.979V146.106H156.078C159.092 146.106 160.656 147.333 160.656 149.786C160.656 152.18 159.092 153.466 156.078 153.466ZM167.416 145.114H171.241V141.609H167.416V145.114ZM167.59 165.088H171.067V147.567H167.59V165.088ZM187.387 156.093C188.952 155.393 189.879 154.049 189.879 152.123C189.879 148.968 187.504 147.567 183.679 147.567H175.914V165.088H184.316C188.083 165.088 190.343 163.453 190.343 160.298C190.343 158.197 189.3 156.795 187.387 156.093ZM179.274 150.37H183.852C185.475 150.37 186.46 151.13 186.46 152.531C186.46 154.167 185.649 154.809 183.679 154.809H179.274V150.37ZM183.968 162.284H179.274V157.437H183.737C185.707 157.437 186.866 158.372 186.866 159.89C186.866 161.409 185.823 162.284 183.968 162.284ZM205.679 147.567V154.575H197.218V147.567H193.741V165.088H197.218V157.729H205.679V165.088H209.156V147.567H205.679ZM215.915 157.437H229.302C229.417 157.028 229.417 156.736 229.417 156.328C229.417 150.837 226.114 147.275 221.014 147.275C215.915 147.275 212.438 150.954 212.438 156.328C212.438 161.525 215.567 165.38 221.304 165.38C224.955 165.38 227.389 163.978 228.838 162.226L226.462 160.123C225.477 161.409 223.854 162.402 221.304 162.402C218.233 162.402 216.321 160.474 215.915 157.437ZM221.014 150.195C223.622 150.195 225.419 151.888 225.882 154.75H215.973C216.495 151.947 218.291 150.195 221.014 150.195ZM244.521 147.567V154.575H236.061V147.567H232.584V165.088H236.061V157.729H244.521V165.088H247.998V147.567H244.521ZM259.973 165.38C263.682 165.38 266.754 163.453 267.738 160.123L264.436 159.072C263.682 161.116 262.06 162.402 259.973 162.402C256.786 162.402 254.816 160.007 254.816 156.328C254.816 152.648 256.786 150.254 259.973 150.254C262.118 150.254 263.682 151.538 264.436 153.582L267.738 152.531C266.754 149.202 263.74 147.275 259.973 147.275C254.816 147.275 251.281 150.954 251.281 156.328C251.281 161.7 254.816 165.38 259.973 165.38ZM278.786 154.167H274.034V147.567H270.557V165.088H278.786C282.611 165.088 285.045 162.927 285.045 159.598C285.045 156.269 282.669 154.167 278.786 154.167ZM278.438 162.167H274.034V157.028H278.438C280.466 157.028 281.51 157.962 281.51 159.598C281.51 161.233 280.466 162.167 278.438 162.167ZM299.801 165.088H304.031L296.44 154.575L303.683 147.567H299.279L291.456 155.393V147.567H287.979V165.088H291.456V159.364L293.948 156.97L299.801 165.088ZM317.803 147.567L309.342 160.182V147.567H305.923V165.088H309.516L317.976 152.356V165.088H321.395V147.567H317.803ZM333.66 145.931C336.674 145.931 338.644 144.413 338.933 141.785L336.21 141.318C336.036 142.778 335.109 143.595 333.66 143.595C332.211 143.595 331.284 142.778 331.11 141.318L328.386 141.785C328.676 144.413 330.647 145.931 333.66 145.931ZM337.833 147.567L329.372 160.182V147.567H325.953V165.088H329.545L338.006 152.356V165.088H341.425V147.567H337.833ZM161.931 195.01V180.584H158.454V195.01H150.225V180.584H146.748V198.105H160.888V202.193H164.191V195.01H161.931ZM168.864 190.455H182.251C182.367 190.045 182.367 189.754 182.367 189.345C182.367 183.855 179.064 180.292 173.964 180.292C168.864 180.292 165.387 183.971 165.387 189.345C165.387 194.543 168.517 198.398 174.254 198.398C177.905 198.398 180.339 196.996 181.787 195.244L179.412 193.141C178.426 194.426 176.804 195.419 174.254 195.419C171.182 195.419 169.27 193.492 168.864 190.455ZM173.964 183.213C176.572 183.213 178.368 184.906 178.832 187.768H168.923C169.444 184.964 171.241 183.213 173.964 183.213ZM197.471 180.584V187.593H189.01V180.584H185.533V198.105H189.01V190.747H197.471V198.105H200.948V180.584H197.471ZM219.355 180.584H203.361V183.68H209.62V198.105H213.097V183.68H219.355V180.584ZM230.982 180.292C228.49 180.292 226.404 181.402 225.013 183.329L224.781 180.584H221.768V203.946H225.245V195.769C226.578 197.463 228.606 198.398 230.982 198.398C235.444 198.398 238.574 194.718 238.574 189.345C238.574 183.855 235.56 180.292 230.982 180.292ZM230.055 195.419C226.984 195.419 225.013 193.024 225.013 189.345C225.013 185.665 226.984 183.271 230.055 183.271C233.126 183.271 235.039 185.665 235.039 189.345C235.039 193.024 233.126 195.419 230.055 195.419ZM262.06 198.105H266.29L258.698 187.593L265.942 180.584H261.538L253.715 188.411V180.584H250.238V198.105H253.715V192.382L256.206 189.988L262.06 198.105ZM275.251 198.398C280.466 198.398 284.059 194.718 284.059 189.345C284.059 183.855 280.582 180.292 275.251 180.292C270.035 180.292 266.443 183.971 266.443 189.345C266.443 194.835 269.92 198.398 275.251 198.398ZM275.251 195.419C272.064 195.419 269.978 193.024 269.978 189.345C269.978 185.665 272.064 183.271 275.251 183.271C278.438 183.271 280.524 185.665 280.524 189.345C280.524 193.024 278.438 195.419 275.251 195.419ZM299.279 180.584V187.593H290.819V180.584H287.342V198.105H290.819V190.747H299.279V198.105H302.756V180.584H299.279ZM321.163 180.584H305.169V183.68H311.428V198.105H314.905V183.68H321.163V180.584ZM332.79 180.292C330.299 180.292 328.213 181.402 326.822 183.329L326.59 180.584H323.577V203.946H327.054V195.769C328.386 197.463 330.415 198.398 332.79 198.398C337.253 198.398 340.382 194.718 340.382 189.345C340.382 183.855 337.369 180.292 332.79 180.292ZM331.863 195.419C328.792 195.419 326.822 193.024 326.822 189.345C326.822 185.665 328.792 183.271 331.863 183.271C334.935 183.271 336.847 185.665 336.847 189.345C336.847 193.024 334.935 195.419 331.863 195.419ZM351.198 198.398C356.414 198.398 360.006 194.718 360.006 189.345C360.006 183.855 356.529 180.292 351.198 180.292C345.983 180.292 342.389 183.971 342.389 189.345C342.389 194.835 345.866 198.398 351.198 198.398ZM351.198 195.419C348.011 195.419 345.925 193.024 345.925 189.345C345.925 185.665 348.011 183.271 351.198 183.271C354.385 183.271 356.471 185.665 356.471 189.345C356.471 193.024 354.385 195.419 351.198 195.419ZM377.834 180.584H363.752V189.637C363.752 194.485 363.289 194.893 361.782 194.893H360.855V198.105C361.26 198.164 361.84 198.223 362.478 198.223C365.838 198.223 367.171 196.354 367.171 189.988V183.68H374.357V198.105H377.834V180.584ZM397.864 180.292C393.401 180.292 390.156 183.213 389.461 187.593H385.868V180.584H382.391V198.105H385.868V190.747H389.403C389.924 195.419 393.112 198.398 397.864 198.398C402.905 198.398 406.382 194.718 406.382 189.345C406.382 183.855 403.021 180.292 397.864 180.292ZM397.864 195.419C394.792 195.419 392.822 193.024 392.822 189.345C392.822 185.665 394.792 183.271 397.864 183.271C400.877 183.271 402.847 185.665 402.847 189.345C402.847 193.024 400.877 195.419 397.864 195.419ZM431.896 180.584H415.902V183.68H422.161V198.105H425.638V183.68H431.896V180.584ZM447.986 195.068C447.232 195.068 446.885 194.718 446.885 193.959V186.075C446.885 182.453 444.335 180.292 440.162 180.292C437.149 180.292 434.657 181.344 432.629 183.271L434.773 185.549C436.164 184.089 438.018 183.213 439.989 183.213C442.191 183.213 443.639 184.147 443.639 185.549C443.639 186.892 442.364 187.126 439.757 187.476C436.396 188.001 432.281 188.936 432.281 193.258C432.281 196.295 434.541 198.398 437.96 198.398C440.51 198.398 442.828 197.23 444.045 195.419C444.277 197.463 445.262 198.223 447.406 198.223C447.986 198.223 448.449 198.164 448.623 198.105V195.068H447.986ZM438.54 195.536C436.744 195.536 435.7 194.66 435.7 193.025C435.7 190.747 437.96 190.396 440.162 190.045C441.843 189.754 442.886 189.578 443.523 189.17V191.447C443.523 193.667 441.205 195.536 438.54 195.536ZM162.163 213.602H146.748V231.123H150.225V216.698H158.686V231.123H162.163V213.602ZM175.935 213.31C173.442 213.31 171.356 214.42 169.965 216.347L169.734 213.602H166.72V236.963H170.197V228.787C171.53 230.481 173.559 231.415 175.935 231.415C180.396 231.415 183.526 227.735 183.526 222.363C183.526 216.873 180.513 213.31 175.935 213.31ZM175.007 228.437C171.936 228.437 169.965 226.042 169.965 222.363C169.965 218.683 171.936 216.289 175.007 216.289C178.078 216.289 179.991 218.683 179.991 222.363C179.991 226.042 178.078 228.437 175.007 228.437ZM194.341 231.415C199.557 231.415 203.15 227.735 203.15 222.363C203.15 216.873 199.673 213.31 194.341 213.31C189.126 213.31 185.533 216.989 185.533 222.363C185.533 227.852 189.01 231.415 194.341 231.415ZM194.341 228.437C191.154 228.437 189.068 226.042 189.068 222.363C189.068 218.683 191.154 216.289 194.341 216.289C197.529 216.289 199.615 218.683 199.615 222.363C199.615 226.042 197.529 228.437 194.341 228.437ZM225.324 213.427C223.296 213.427 221.557 214.244 220.398 215.822V207.762H216.921V215.704C215.762 214.186 214.081 213.427 212.053 213.427C207.997 213.427 205.157 216.989 205.157 222.363C205.157 227.794 207.881 231.298 212.053 231.298C214.081 231.298 215.762 230.481 216.921 228.904V236.963H220.398V228.962C221.557 230.481 223.238 231.298 225.324 231.298C229.323 231.298 232.22 227.735 232.22 222.363C232.22 216.931 229.496 213.427 225.324 213.427ZM212.922 228.437C210.315 228.437 208.693 226.042 208.693 222.363C208.693 218.683 210.315 216.289 212.922 216.289C215.472 216.289 217.095 218.683 217.095 222.363C217.095 226.042 215.472 228.437 212.922 228.437ZM224.455 228.437C221.847 228.437 220.224 226.042 220.224 222.363C220.224 218.683 221.847 216.289 224.455 216.289C227.005 216.289 228.685 218.683 228.685 222.363C228.685 226.042 227.005 228.437 224.455 228.437ZM235.56 211.149H239.385V207.644H235.56V211.149ZM235.734 231.123H239.211V213.602H235.734V231.123ZM259.067 213.602H244.985V222.654C244.985 227.502 244.521 227.911 243.015 227.911H242.088V231.123C242.493 231.182 243.073 231.24 243.71 231.24C247.071 231.24 248.404 229.371 248.404 223.005V216.698H255.59V231.123H259.067V213.602ZM277.764 228.086C277.01 228.086 276.663 227.735 276.663 226.977V219.092C276.663 215.471 274.113 213.31 269.941 213.31C266.927 213.31 264.436 214.361 262.407 216.289L264.551 218.566C265.942 217.106 267.796 216.23 269.767 216.23C271.969 216.23 273.418 217.165 273.418 218.566C273.418 219.91 272.143 220.143 269.535 220.494C266.174 221.019 262.06 221.954 262.06 226.276C262.06 229.313 264.319 231.415 267.738 231.415C270.288 231.415 272.606 230.247 273.823 228.437C274.055 230.481 275.04 231.24 277.185 231.24C277.764 231.24 278.227 231.182 278.401 231.123V228.086H277.764ZM268.318 228.553C266.522 228.553 265.478 227.677 265.478 226.042C265.478 223.765 267.738 223.414 269.941 223.063C271.621 222.772 272.664 222.596 273.301 222.187V224.465C273.301 226.684 270.984 228.553 268.318 228.553ZM293.215 231.123H297.446L289.854 220.61L297.098 213.602H292.694L284.87 221.428V213.602H281.393V231.123H284.87V225.399L287.363 223.005L293.215 231.123ZM313.187 213.602H297.193V216.698H303.451V231.123H306.928V216.698H313.187V213.602ZM327.48 213.602L319.02 226.217V213.602H315.6V231.123H319.193L327.654 218.391V231.123H331.073V213.602H327.48ZM347.452 231.123H351.682L344.091 220.61L351.334 213.602H346.93L339.107 221.428V213.602H335.63V231.123H339.107V225.399L341.599 223.005L347.452 231.123ZM365.454 213.602L356.993 226.217V213.602H353.574V231.123H357.167L365.628 218.391V231.123H369.046V213.602H365.454ZM162.453 264.141L155.847 255.205L162.163 246.62H158.223L153.702 252.81L149.241 246.62H145.126L151.442 255.205L144.778 264.141H148.835L153.587 257.599L158.28 264.141H162.453ZM176.514 255.146C178.078 254.446 179.006 253.102 179.006 251.175C179.006 248.021 176.629 246.62 172.805 246.62H165.039V264.141H173.442C177.209 264.141 179.469 262.505 179.469 259.351C179.469 257.249 178.426 255.848 176.514 255.146ZM168.401 249.423H172.979C174.601 249.423 175.587 250.182 175.587 251.584C175.587 253.219 174.775 253.862 172.805 253.862H168.401V249.423ZM173.095 261.337H168.401V256.49H172.863C174.833 256.49 175.992 257.424 175.992 258.943C175.992 260.461 174.949 261.337 173.095 261.337ZM190.285 264.433C195.5 264.433 199.094 260.753 199.094 255.38C199.094 249.89 195.617 246.327 190.285 246.327C185.069 246.327 181.477 250.007 181.477 255.38C181.477 260.87 184.954 264.433 190.285 264.433ZM190.285 261.454C187.097 261.454 185.011 259.06 185.011 255.38C185.011 251.701 187.097 249.306 190.285 249.306C193.472 249.306 195.558 251.701 195.558 255.38C195.558 259.06 193.472 261.454 190.285 261.454ZM211.59 246.327C209.098 246.327 207.012 247.438 205.621 249.364L205.389 246.62H202.376V269.981H205.853V261.805C207.186 263.498 209.214 264.433 211.59 264.433C216.052 264.433 219.181 260.753 219.181 255.38C219.181 249.89 216.168 246.327 211.59 246.327ZM210.662 261.454C207.591 261.454 205.621 259.06 205.621 255.38C205.621 251.701 207.591 249.306 210.662 249.306C213.734 249.306 215.647 251.701 215.647 255.38C215.647 259.06 213.734 261.454 210.662 261.454ZM229.997 264.433C235.212 264.433 238.805 260.753 238.805 255.38C238.805 249.89 235.328 246.327 229.997 246.327C224.781 246.327 221.189 250.007 221.189 255.38C221.189 260.87 224.666 264.433 229.997 264.433ZM229.997 261.454C226.809 261.454 224.723 259.06 224.723 255.38C224.723 251.701 226.809 249.306 229.997 249.306C233.184 249.306 235.27 251.701 235.27 255.38C235.27 259.06 233.184 261.454 229.997 261.454ZM257.966 256.315C257.908 251.701 254.779 248.43 250.491 248.43C247.651 248.43 245.448 249.481 244.174 251.292C244.464 248.43 245.912 246.853 248.984 246.211L254.025 245.159C256.054 244.692 257.213 243.524 257.386 241.539L257.445 240.954L254.141 240.371L254.025 240.896C253.909 241.597 253.561 241.947 252.924 242.064L248.81 242.94C243.479 244.05 241.044 247.613 241.044 254.387C241.044 260.52 244.348 264.433 249.563 264.433C254.547 264.433 258.024 261.045 257.966 256.315ZM249.563 261.454C246.666 261.454 244.696 259.293 244.696 256.198C244.696 253.102 246.607 251.175 249.563 251.175C252.519 251.175 254.373 253.161 254.373 256.373C254.373 259.468 252.519 261.454 249.563 261.454Z" fill="white"/>
<path d="M222.528 46.1H129.808V80.3636H222.528V46.1Z" fill="white"/>
<path d="M150.795 72.2649H153.925L149.752 65.3879C151.794 64.6434 153.012 62.9789 153.012 60.701C153.012 57.591 150.752 55.6198 147.144 55.6198H140.321V72.2649H143.015V65.7822H146.927L150.795 72.2649ZM143.015 58.029H146.883C149.1 58.029 150.187 58.9489 150.187 60.7448C150.187 62.5409 149.1 63.5047 146.883 63.5047H143.015V58.029ZM157.629 72.2649H160.367V55.6198H157.629V72.2649ZM176.763 55.6198L171.808 69.4179L166.767 55.6198H163.855L170.069 72.2649H173.416L179.675 55.6198H176.763ZM194.376 55.6198V67.8405L185.857 55.6198H183.162V72.2649H185.77V59.9563L194.332 72.2649H196.984V55.6198H194.376ZM205.121 69.8116V64.9063H211.814V62.5409H205.121V58.0728H213.77V55.6198H202.383V72.2649H213.988V69.8116H205.121Z" fill="black"/>
</svg>
