<svg width="80" height="80" viewBox="0 0 80 80" fill="none" xmlns="http://www.w3.org/2000/svg">
<path d="M73.1921 18.1984C69.9185 13.8342 62.6123 12.6278 53.0535 14.8369C52.8485 14.3455 52.6368 13.8628 52.4185 13.3927C53.1927 12.5565 53.6578 11.4808 53.7368 10.344C53.8158 9.20719 53.5039 8.07753 52.8528 7.1423C52.2017 6.20706 51.2506 5.52242 50.1571 5.20187C49.0636 4.88132 47.8933 4.94411 46.8404 5.37984C44.6968 3.47031 42.3996 2.5 39.9999 2.5C37.2438 2.5 34.6273 3.77141 32.223 6.27891C30.209 8.37922 28.4374 11.2563 26.946 14.8367C17.3873 12.628 10.0812 13.8344 6.80788 18.1983C3.0846 23.1614 5.2146 31.2644 12.4902 40C12.0933 40.4766 11.7091 40.9542 11.3376 41.4328C10.2823 41.1388 9.15955 41.1997 8.14226 41.6062C7.12497 42.0128 6.2695 42.7424 5.70751 43.6828C5.14552 44.6231 4.90818 45.7222 5.03202 46.8106C5.15586 47.8991 5.63401 48.9168 6.39288 49.7069C4.39913 54.6047 4.53694 58.7725 6.80772 61.8006C9.00991 64.7364 13.0355 66.2438 18.3452 66.2436C20.9287 66.2436 23.8173 65.8853 26.946 65.1622C28.4371 68.7427 30.209 71.6198 32.223 73.7202C34.6273 76.2286 37.2438 77.5 39.9999 77.5C42.756 77.5 45.3726 76.2286 47.7768 73.7211C49.7905 71.6209 51.5622 68.7444 53.0533 65.1644C53.722 65.3189 54.3824 65.457 55.0344 65.5788C55.1724 66.7555 55.7238 67.8451 56.5903 68.6532C57.4568 69.4613 58.5821 69.9354 59.7657 69.9911C60.9492 70.0467 62.114 69.6802 63.0525 68.957C63.991 68.2337 64.6422 67.2007 64.8899 66.042C68.6243 65.5348 71.4837 64.0812 73.1919 61.8017C76.9151 56.8388 74.7857 48.7358 67.5099 40C74.7854 31.2641 76.9151 23.1612 73.1921 18.1984ZM71.1921 19.6984C74.0883 23.5592 72.0321 30.5328 65.8435 38.0881C63.0864 35.086 60.0814 32.3214 56.8604 29.8234C56.2732 25.2745 55.2783 20.9502 53.9577 17.1958C62.2246 15.352 68.6132 16.2603 71.1921 19.6986V19.6984ZM51.5202 62.1961C48.5804 61.3758 45.7024 60.348 42.908 59.1203C45.6119 57.7246 48.242 56.1905 50.788 54.5242C51.8856 53.8064 52.9631 53.0673 54.0205 52.307C53.4817 55.6709 52.6451 58.9803 51.5208 62.1963L51.5202 62.1961ZM28.4783 62.1961C27.354 58.9802 26.5174 55.6708 25.9783 52.3069C27.0333 53.0647 28.1109 53.8038 29.211 54.5241C31.757 56.1905 34.3871 57.7246 37.091 59.1203C34.2967 60.348 31.4188 61.3759 28.479 62.1963L28.4783 62.1961ZM28.4783 17.8036C31.4182 18.6239 34.2962 19.6517 37.0905 20.8794C34.3867 22.2751 31.7566 23.8092 29.2105 25.4755C28.1128 26.1933 27.0353 26.9323 25.978 27.6927C26.5173 24.3288 27.3543 21.0195 28.479 17.8038L28.4783 17.8036ZM30.5787 52.4317C28.8262 51.2858 27.1193 50.0788 25.4955 48.8398C24.8339 42.9651 24.8339 37.0346 25.4955 31.1598C27.1193 29.9209 28.8263 28.7138 30.5787 27.5678C33.6024 25.5875 36.7492 23.8016 39.9999 22.2213C43.2505 23.8017 46.397 25.5876 49.4205 27.5681C51.173 28.7141 52.8799 29.9211 54.5037 31.16C54.8355 34.095 55.0012 37.0463 54.9999 40C55.0012 42.9537 54.8356 45.905 54.5037 48.84C52.8799 50.0789 51.1729 51.2861 49.4205 52.432C46.397 54.4124 43.2504 56.1983 39.9999 57.7787C36.7494 56.1983 33.6028 54.4124 30.5793 52.4319L30.5787 52.4317ZM22.7716 46.6678C20.2911 44.6144 17.9608 42.3861 15.7985 40C17.9612 37.6137 20.2918 35.3851 22.7724 33.3313C22.5927 35.5255 22.4999 37.7575 22.4999 40C22.4999 42.2425 22.5927 44.4737 22.7723 46.668L22.7716 46.6678ZM51.5208 17.8038C52.6452 21.0197 53.4818 24.3291 54.0208 27.693C52.9658 26.9352 51.8883 26.1961 50.7882 25.4758C48.2422 23.8094 45.612 22.2753 42.9082 20.8795C45.7027 19.6519 48.5808 18.6241 51.5208 17.8038ZM57.2276 33.332C59.7083 35.3854 62.0388 37.6138 64.2013 40C62.0386 42.3863 59.708 44.6149 57.2274 46.6687C57.4071 44.4745 57.4999 42.2425 57.4999 40C57.4999 37.7575 57.4071 35.5262 57.2276 33.332ZM51.2499 10C51.2499 10.4945 51.1033 10.9778 50.8286 11.3889C50.5539 11.8 50.1634 12.1205 49.7066 12.3097C49.2498 12.4989 48.7471 12.5484 48.2622 12.452C47.7772 12.3555 47.3318 12.1174 46.9821 11.7678C46.6325 11.4181 46.3944 10.9727 46.2979 10.4877C46.2015 10.0028 46.251 9.50011 46.4402 9.04329C46.6294 8.58648 46.9499 8.19603 47.361 7.92133C47.7721 7.64662 48.2555 7.5 48.7499 7.5C49.4127 7.50079 50.0481 7.76443 50.5168 8.2331C50.9855 8.70177 51.2491 9.3372 51.2499 10ZM39.9999 5C41.6355 5 43.2485 5.64969 44.808 6.92953C44.15 7.77301 43.78 8.80542 43.7525 9.87487C43.7251 10.9443 44.0415 11.9944 44.6554 12.8705C45.2693 13.7467 46.1482 14.4027 47.1627 14.742C48.1773 15.0814 49.274 15.0861 50.2915 14.7556C50.3971 14.9889 50.5013 15.2248 50.604 15.4634C46.9665 16.5012 43.42 17.8347 39.9999 19.4505C36.5793 17.8343 33.0322 16.5006 29.3941 15.4627C32.244 8.79312 36.0677 5 39.9999 5ZM8.80772 19.6984C11.3866 16.2609 17.7749 15.3519 26.0421 17.1959C24.7218 20.9497 23.7269 25.2731 23.1398 29.822C19.9189 32.3206 16.9138 35.0855 14.1563 38.0877C7.96772 30.5331 5.91131 23.5594 8.80772 19.6984ZM9.99991 43.75C10.4944 43.75 10.9777 43.8966 11.3888 44.1713C11.8 44.446 12.1204 44.8365 12.3096 45.2933C12.4988 45.7501 12.5483 46.2528 12.4519 46.7377C12.3554 47.2227 12.1173 47.6681 11.7677 48.0178C11.418 48.3674 10.9726 48.6055 10.4876 48.702C10.0027 48.7984 9.50001 48.7489 9.0432 48.5597C8.58638 48.3705 8.19594 48.05 7.92123 47.6389C7.64653 47.2278 7.49991 46.7445 7.49991 46.25C7.50069 45.5872 7.76434 44.9518 8.23301 44.4831C8.70168 44.0144 9.33711 43.7508 9.99991 43.75ZM8.80788 60.3017C6.78334 57.6014 7.43288 53.958 8.55506 51.0361C9.62297 51.3591 10.7682 51.3154 11.8085 50.9121C12.8487 50.5088 13.7241 49.769 14.2951 48.8106C14.8662 47.8521 15.1002 46.7302 14.9598 45.6234C14.8193 44.5166 14.3126 43.4886 13.5202 42.7031C13.7275 42.4391 13.9394 42.1751 14.156 41.9112C16.9132 44.9137 19.9183 47.6787 23.1394 50.1769C23.7266 54.7258 24.7215 59.0502 26.0421 62.8045C17.7754 64.6481 11.3868 63.7397 8.80788 60.3017ZM39.9999 75C36.0677 75 32.244 71.2069 29.3941 64.5372C33.0322 63.4994 36.5793 62.1657 39.9999 60.5495C43.4206 62.1656 46.9677 63.4993 50.6057 64.5373C47.7558 71.2069 43.9321 75 39.9999 75ZM59.9999 67.5C59.5055 67.5 59.0221 67.3534 58.611 67.0787C58.1999 66.804 57.8794 66.4135 57.6902 65.9567C57.501 65.4999 57.4515 64.9972 57.5479 64.5123C57.6444 64.0273 57.8825 63.5819 58.2321 63.2322C58.5818 62.8826 59.0272 62.6445 59.5122 62.548C59.9971 62.4516 60.4998 62.5011 60.9566 62.6903C61.4134 62.8795 61.8039 63.2 62.0786 63.6111C62.3533 64.0222 62.4999 64.5055 62.4999 65C62.4991 65.6628 62.2355 66.2982 61.7668 66.7669C61.2981 67.2356 60.6627 67.4992 59.9999 67.5ZM71.1916 60.302C69.926 61.9911 67.7218 63.0967 64.7802 63.5342C64.4779 62.5493 63.8787 61.6817 63.0645 61.0503C62.2504 60.4189 61.2611 60.0544 60.2318 60.0067C59.2026 59.959 58.1838 60.2304 57.3148 60.7838C56.4457 61.3372 55.7688 62.1455 55.3766 63.0983C54.9094 63.0095 54.4365 62.9114 53.9579 62.8037C55.2782 59.0502 56.2729 54.7267 56.8601 50.178C60.081 47.6795 63.086 44.9145 65.8435 41.9123C72.0321 49.4669 74.0883 56.4406 71.1916 60.302Z" fill="white"/>
<path d="M40 30C38.0222 30 36.0888 30.5865 34.4443 31.6853C32.7998 32.7841 31.5181 34.3459 30.7612 36.1732C30.0043 38.0004 29.8063 40.0111 30.1922 41.9509C30.578 43.8907 31.5304 45.6725 32.9289 47.0711C34.3275 48.4696 36.1093 49.422 38.0491 49.8079C39.9889 50.1937 41.9996 49.9957 43.8268 49.2388C45.6541 48.4819 47.2159 47.2002 48.3147 45.5557C49.4135 43.9112 50 41.9778 50 40C49.997 37.3487 48.9425 34.8069 47.0678 32.9322C45.1931 31.0575 42.6513 30.003 40 30ZM40 47.5C38.5166 47.5 37.0666 47.0601 35.8332 46.236C34.5999 45.4119 33.6386 44.2406 33.0709 42.8701C32.5033 41.4997 32.3547 39.9917 32.6441 38.5368C32.9335 37.082 33.6478 35.7456 34.6967 34.6967C35.7456 33.6478 37.082 32.9335 38.5368 32.6441C39.9917 32.3547 41.4997 32.5032 42.8701 33.0709C44.2406 33.6386 45.4119 34.5999 46.236 35.8332C47.0601 37.0666 47.5 38.5166 47.5 40C47.4977 41.9884 46.7068 43.8948 45.3008 45.3008C43.8948 46.7068 41.9884 47.4977 40 47.5Z" fill="white"/>
</svg>
