<svg width="80" height="80" viewBox="0 0 80 80" fill="none" xmlns="http://www.w3.org/2000/svg">
<path d="M77.656 21.7138H72.7477C72.259 18.9531 71.1209 16.2863 69.332 13.962L72.7098 10.5841C73.6252 9.66869 73.6252 8.18462 72.7098 7.26921C71.7946 6.3538 70.3104 6.3538 69.3949 7.26921L66.0147 10.6494C63.7524 8.91298 61.1669 7.79145 58.4867 7.28499V2.37555C58.4867 1.08103 57.4372 0.0315399 56.1427 0.0315399C54.8482 0.0315399 53.7987 1.08103 53.7987 2.37555V7.02199C50.752 7.24983 47.7537 8.254 45.1268 10.0331L41.6475 6.55382C40.7323 5.6384 39.248 5.6384 38.3326 6.55382C37.4172 7.46923 37.4172 8.9533 38.3326 9.86871L41.5839 13.12L34.5672 20.1367L31.2931 16.8626C30.3779 15.9472 28.8936 15.9472 27.9782 16.8626C27.0628 17.778 27.0628 19.2621 27.9782 20.1775L31.2523 23.4516L24.2356 30.4683L20.9615 27.1942C20.0463 26.2788 18.562 26.2788 17.6466 27.1942C16.7312 28.1096 16.7312 29.5937 17.6466 30.5091L20.9207 33.7832L13.904 40.7999L10.6296 37.5255C9.71434 36.6101 8.23012 36.6101 7.31471 37.5255C6.39929 38.4409 6.39929 39.925 7.31471 40.8404L10.6918 44.2175C8.69861 46.7963 7.50863 49.7992 7.12 52.8848H2.34401C1.04949 52.8848 0 53.9343 0 55.2288C0 56.5233 1.04949 57.5728 2.34401 57.5728H7.14469C7.55489 60.5785 8.72752 63.4988 10.6634 66.0175L7.26017 69.4204C6.34476 70.3358 6.34476 71.8199 7.26017 72.7353C7.71788 73.193 8.31779 73.4219 8.91754 73.4219C9.51729 73.4219 10.1174 73.1931 10.5749 72.7353L13.9779 69.3323C16.5332 71.2964 19.502 72.4745 22.5537 72.8681V77.6244C22.5537 78.9189 23.6032 79.9684 24.8977 79.9684C26.1922 79.9684 27.2417 78.9189 27.2417 77.6244V72.8579C30.4385 72.4315 33.541 71.1434 36.1691 68.9919L39.5037 72.3265C39.9614 72.7842 40.5613 73.0131 41.1611 73.0131C41.7608 73.0131 42.3609 72.7843 42.8184 72.3265C43.7338 71.4111 43.7338 69.927 42.8184 69.0116L39.5468 65.74L46.4463 58.8405L49.7179 62.1121C50.1756 62.5698 50.7756 62.7987 51.3753 62.7987C51.9751 62.7987 52.5751 62.57 53.0327 62.1121C53.9481 61.1967 53.9481 59.7126 53.0327 58.7972L49.7611 55.5256L56.6606 48.6261L59.9322 51.8977C60.3899 52.3554 60.9898 52.5843 61.5896 52.5843C62.1893 52.5843 62.7894 52.3556 63.2469 51.8977C64.1623 50.9823 64.1623 49.4982 63.2469 48.5828L59.9753 45.3112L66.8748 38.4117L70.1464 41.6833C70.6041 42.141 71.204 42.3699 71.8038 42.3699C72.4035 42.3699 73.0036 42.1411 73.4612 41.6833C74.3766 40.7679 74.3766 39.2838 73.4612 38.3684L69.9614 34.8686C71.7005 32.3009 72.6986 29.3779 72.9553 26.4018H77.6549C78.9494 26.4018 79.9989 25.3523 79.9989 24.0578C79.9989 22.7632 78.9505 21.7138 77.656 21.7138ZM55.052 43.6055C55.0354 43.6212 55.0176 43.6351 55.0013 43.6513C54.9851 43.6676 54.9713 43.6852 54.9557 43.7018L44.8373 53.8201C44.8207 53.8357 44.803 53.8495 44.7869 53.8656C44.7708 53.8818 44.7571 53.8993 44.7415 53.9159L34.6225 64.0348C34.6061 64.0503 34.5886 64.064 34.5725 64.0801C34.5564 64.0962 34.5428 64.1137 34.5274 64.1301L34.1809 64.4766C31.6911 66.9664 28.4448 68.2464 25.1749 68.324C25.084 68.3132 24.992 68.3062 24.898 68.3062C24.8005 68.3062 24.705 68.314 24.6107 68.3256C21.3181 68.264 18.0445 66.9834 15.5375 64.4766L15.5189 64.458C10.3789 59.318 10.3789 50.9546 15.5189 45.8147L45.8216 15.512C48.3915 12.942 51.7674 11.657 55.1432 11.657C55.3951 11.657 55.6469 11.6666 55.8985 11.6808C55.906 11.6816 55.9135 11.6817 55.921 11.6823C59.0191 11.8638 62.0646 13.1289 64.4327 15.4812C64.4435 15.4923 64.4525 15.5043 64.4636 15.5154C64.4764 15.5282 64.4905 15.539 64.5036 15.5515C69.6229 20.6932 69.6167 29.0407 64.4836 34.1737L55.052 43.6055Z" fill="white"/>
<path d="M40.2696 47.7259C38.1946 47.7259 36.5065 46.0379 36.5065 43.9628C36.5065 42.6683 35.457 41.6188 34.1625 41.6188C32.868 41.6188 31.8185 42.6683 31.8185 43.9628C31.8185 48.6227 35.6095 52.4139 40.2696 52.4139C41.5641 52.4139 42.6136 51.3644 42.6136 50.0699C42.6136 48.7753 41.5641 47.7259 40.2696 47.7259Z" fill="white"/>
<path d="M59.6116 21.2989C58.6963 20.3836 57.2121 20.3835 56.2967 21.2989C54.7004 22.895 53.8214 25.0172 53.8214 27.2747C53.8214 29.532 54.7004 31.6542 56.2967 33.2505C56.7544 33.7082 57.3543 33.937 57.954 33.937C58.5538 33.937 59.1539 33.7082 59.6116 33.2503C60.5268 32.3349 60.5268 30.8509 59.6116 29.9354C58.9009 29.2247 58.5094 28.2798 58.5094 27.2747C58.5094 26.2696 58.9009 25.3246 59.6116 24.6139C60.527 23.6984 60.527 22.2143 59.6116 21.2989Z" fill="white"/>
<path d="M21.4151 50.4032C22.8823 51.8704 22.8823 54.2577 21.4151 55.7249C20.4997 56.6403 20.4997 58.1243 21.4151 59.0398C22.3305 59.9552 23.8146 59.9552 24.73 59.0398C28.025 55.7447 28.025 50.3833 24.73 47.0883C23.8146 46.1729 22.3305 46.1729 21.4151 47.0883C20.4997 48.0037 20.4997 49.4879 21.4151 50.4032Z" fill="white"/>
<path d="M38.937 29.2404C40.4042 30.7076 40.4042 33.0949 38.937 34.5621C38.0216 35.4775 38.0216 36.9616 38.937 37.877C39.8525 38.7924 41.3365 38.7924 42.2519 37.877C45.547 34.5819 45.547 29.2205 42.2519 25.9255C41.3365 25.0101 39.8525 25.0101 38.937 25.9255C38.0216 26.8408 38.0216 28.325 38.937 29.2404Z" fill="white"/>
</svg>
