<svg width="80" height="80" viewBox="0 0 80 80" fill="none" xmlns="http://www.w3.org/2000/svg">
<g clip-path="url(#clip0)">
<path d="M77.0859 39.3169C76.1398 39.1315 75.1786 39.3253 74.3786 39.8628C73.716 40.3081 73.2297 40.9451 72.9769 41.6882L68.8657 39.8929C68.8741 39.6115 68.8783 39.3342 68.8783 39.0642C68.8783 36.647 68.5757 34.2469 67.9786 31.9217L69.8227 30.6708C70.9916 31.6946 72.6905 32.0006 74.1779 31.3545C76.1792 30.4848 77.1379 28.1687 76.36 26.0818L75.4919 23.7519C74.7049 21.6394 72.4408 20.5264 70.338 21.2165C69.2738 21.566 68.4174 22.3115 67.9267 23.3157C67.6476 23.8869 67.5068 24.4995 67.5065 25.1151L65.4144 25.4073C65.1277 24.8819 64.8146 24.3494 64.4801 23.8189C64.1343 23.2703 63.4089 23.1061 62.8607 23.4518C62.3119 23.7976 62.1475 24.5227 62.4934 25.0713C62.8881 25.6974 63.2497 26.3247 63.5683 26.9363C63.8882 27.5494 64.5627 27.8971 65.2453 27.8019L69.0181 27.2752C69.3682 27.2264 69.6778 27.0224 69.8606 26.7199C70.0435 26.4174 70.0804 26.0486 69.9611 25.7159C69.7991 25.2643 69.826 24.7782 70.0366 24.347C70.2467 23.9171 70.6138 23.5979 71.0705 23.4479C71.9564 23.1573 72.952 23.6616 73.2912 24.5722L74.1594 26.902C74.4954 27.8036 74.0838 28.8349 73.2418 29.201C72.4358 29.551 71.4867 29.2509 71.0331 28.503C70.8664 28.2279 70.5938 28.0333 70.2796 27.9647C69.9654 27.896 69.6364 27.9597 69.3701 28.1403L66.2409 30.2628C65.6603 30.6564 65.396 31.3761 65.5833 32.0537C66.2114 34.3281 66.5299 36.6869 66.5299 39.0643C66.5299 39.4539 66.52 39.8609 66.5009 40.2744C66.4698 40.9479 66.8632 41.5814 67.4798 41.8505L73.3465 44.4125C73.6728 44.5552 74.0462 44.5419 74.3614 44.3767C74.6768 44.2115 74.9001 43.9122 74.9687 43.5627L75.1547 42.6155C75.2195 42.2853 75.4091 42.0001 75.6884 41.8123C75.9675 41.6246 76.3032 41.5568 76.6336 41.6218C77.3154 41.7555 77.7613 42.419 77.6276 43.1007L76.6655 48.0038C76.5985 48.3451 76.4001 48.6362 76.1067 48.8234C75.8136 49.0105 75.4651 49.0672 75.1255 48.9842C74.4836 48.8266 74.0711 48.1391 74.2059 47.4515L74.2316 47.3204C74.3008 46.9667 74.2039 46.6008 73.9685 46.3279C73.7332 46.0547 73.383 45.9038 73.0257 45.9215L66.6796 46.211C66.0077 46.2415 65.4136 46.6921 65.2013 47.3328C64.6134 49.1079 63.8331 50.823 62.8818 52.4303C62.5275 53.0287 62.5896 53.7874 63.0363 54.3182L65.8438 57.6535C66.0524 57.9013 66.3541 58.0518 66.6772 58.0698C67.0005 58.0873 67.3171 57.9711 67.5515 57.748C68.1808 57.1495 69.1375 57.0983 69.8263 57.6254C70.1993 57.9107 70.4385 58.324 70.5005 58.7893C70.5625 59.2546 70.4393 59.7162 70.1542 60.089L69.3407 61.1522C68.7562 61.9157 67.6647 62.1121 66.9074 61.5903C66.2637 61.1467 65.9885 60.3201 66.238 59.58C66.4325 59.0037 66.1546 58.3743 65.5975 58.1297L61.5532 56.3534C60.91 56.0704 60.1593 56.2303 59.6846 56.7512C57.8813 58.7314 55.7988 60.4185 53.495 61.7658C52.9131 62.1055 52.5954 62.7797 52.7041 63.443L53.7394 69.7563C53.797 70.1076 54.0109 70.4139 54.321 70.5889C54.6312 70.764 55.0037 70.7887 55.3345 70.6565L56.2303 70.298C56.5533 70.1688 56.9056 70.1773 57.2222 70.322C57.5386 70.4663 57.7756 70.7279 57.8902 71.0586C58.1066 71.6831 57.7532 72.4032 57.1026 72.6634L52.5275 74.4936C52.2045 74.6229 51.8523 74.6143 51.5356 74.4698C51.2194 74.3255 50.9822 74.0638 50.8676 73.7333C50.6512 73.1088 51.0044 72.3888 51.6546 72.1286L51.7784 72.0791C52.1132 71.9452 52.3678 71.6651 52.4692 71.3193C52.5705 70.9734 52.5076 70.6002 52.2981 70.3068L48.6071 65.1352C48.2166 64.5877 47.5154 64.3336 46.8634 64.5026C44.7115 65.0605 42.4869 65.3434 40.2511 65.3434C38.4809 65.3434 36.7062 65.1646 34.9768 64.812C34.3166 64.6775 33.6305 64.9676 33.2684 65.5346L29.574 71.3288C29.3825 71.629 29.3377 71.9999 29.4521 72.3371C29.5663 72.6743 29.8274 72.9414 30.162 73.0634L30.2927 73.1111C30.7413 73.2746 31.0994 73.6031 31.3008 74.036C31.5023 74.4687 31.5232 74.9542 31.3597 75.4028C31.3126 75.5316 31.2886 75.6678 31.2886 75.805C31.2886 76.2492 31.1576 76.5856 30.9196 76.752C30.6818 76.9186 30.3211 76.9268 29.9035 76.7743L25.365 75.1194C24.4562 74.7881 23.9724 73.7747 24.2863 72.8603C24.4362 72.4245 24.7587 72.07 25.1946 71.8621C25.655 71.6424 26.1903 71.6152 26.6626 71.7874L26.7666 71.8253C27.1049 71.949 27.4816 71.91 27.7879 71.7199C28.0943 71.5299 28.2962 71.2097 28.3358 70.8515L29.088 64.0608C29.162 63.3926 28.8095 62.7361 28.2108 62.4271C25.4654 61.0092 23.0091 59.1339 20.9107 56.8539C20.4488 56.3516 19.7154 56.1877 19.0857 56.4462L13.5473 58.7175C13.24 58.8435 13.0004 59.0937 12.888 59.4062C12.7754 59.7187 12.8007 60.0642 12.9571 60.3572C13.3085 61.0147 13.1027 61.8202 12.4783 62.2308C11.8347 62.6543 10.9335 62.4562 10.47 61.7892L9.05142 59.7472C8.59645 59.0923 8.70479 58.2132 9.29801 57.7457C9.60472 57.5039 9.98532 57.3981 10.3689 57.4474C10.7555 57.4972 11.0974 57.6954 11.3321 58.0057C11.5444 58.2866 11.8716 58.4574 12.2236 58.471C12.5743 58.4845 12.9148 58.3395 13.1481 58.0757L17.049 53.6666C17.5068 53.1491 17.5888 52.3945 17.253 51.788C16.8336 51.0314 16.4434 50.2348 16.0937 49.4201C15.8375 48.8244 15.1472 48.5487 14.5512 48.8046C13.9553 49.0606 13.6798 49.7511 13.9356 50.3469C14.2492 51.0767 14.5925 51.7937 14.9592 52.4843L12.1652 55.6427C11.7158 55.3672 11.2089 55.1874 10.6689 55.1179C9.65325 54.9875 8.65093 55.2655 7.84447 55.9009C6.27743 57.1359 5.96054 59.4139 7.12303 61.0869L8.54165 63.1288C9.72543 64.8328 12.0701 65.3099 13.769 64.1927C15.0395 63.3571 15.6518 61.8996 15.4381 60.4799L19.5213 58.8053C21.6183 61.0072 24.0294 62.8476 26.7004 64.285L26.1418 69.329C25.4714 69.3099 24.7969 69.4493 24.1835 69.7419C23.1739 70.2235 22.4217 71.0597 22.0653 72.0969C21.3385 74.2132 22.458 76.5587 24.5606 77.3254L29.0991 78.9803C29.5545 79.1464 30.0122 79.2284 30.4529 79.2284C31.1167 79.2284 31.7425 79.0421 32.2662 78.6757C33.0879 78.1007 33.5792 77.1372 33.6324 76.0104C33.9369 75.0284 33.8671 73.9827 33.43 73.0441C33.1499 72.4423 32.7389 71.9278 32.2304 71.5308L34.9876 67.2062C38.9471 67.9428 43.0759 67.8345 46.9777 66.8942L49.6572 70.6484C48.6026 71.6028 48.1645 73.1047 48.6484 74.5019C48.9753 75.4449 49.6542 76.192 50.5601 76.6058C51.4534 77.0137 52.488 77.0384 53.3997 76.6739L57.9749 74.8437C59.803 74.1124 60.7406 72.112 60.1094 70.2897C59.7826 69.3467 59.1038 68.5995 58.1979 68.1857C57.4547 67.8462 56.613 67.7719 55.8261 67.9669L55.1004 63.5426C57.2983 62.2066 59.304 60.5831 61.0733 58.7076L63.8057 59.9077C63.7293 61.3113 64.3801 62.7008 65.5748 63.5241C67.3769 64.7658 69.8503 64.3506 71.2058 62.5794L72.0193 61.5162C72.6858 60.6452 72.9733 59.5668 72.8286 58.4796C72.6839 57.3925 72.1247 56.4266 71.2536 55.7601C69.9827 54.7877 68.3238 54.6568 66.9578 55.3299L65.156 53.1894C65.9982 51.7067 66.7084 50.145 67.2728 48.5347L71.8784 48.3246C72.1068 49.7285 73.1298 50.9121 74.5658 51.2647C75.535 51.5029 76.5312 51.3385 77.3705 50.8027C78.1981 50.2743 78.7812 49.419 78.9701 48.4557L79.9322 43.5525C80.3152 41.6 79.0384 39.7 77.0859 39.3169Z" fill="white"/>
<path d="M7.56547 42.4887L11.9668 43.5053C12.0626 44.1173 12.1811 44.7387 12.3205 45.3586C12.4431 45.9046 12.9278 46.2759 13.4651 46.2757C13.5503 46.2757 13.6369 46.2663 13.7234 46.2469C14.3561 46.1047 14.7539 45.4768 14.6118 44.8439C14.45 44.1231 14.3187 43.4012 14.2216 42.6982C14.1291 42.0292 13.6259 41.4778 12.9697 41.3264L6.73615 39.8868C6.38968 39.8068 6.02457 39.8884 5.7451 40.1087C5.46548 40.3291 5.30093 40.6645 5.2978 41.0205L5.29138 41.7502C5.28402 42.5672 4.61346 43.2319 3.79636 43.2319C3.40729 43.2319 3.04203 43.0798 2.7682 42.8034C2.49422 42.5269 2.34532 42.1606 2.34877 41.7715L2.38947 37.2431C2.39307 36.8279 2.56952 36.4216 2.87341 36.1285C3.15898 35.8529 3.51986 35.7051 3.9011 35.7164C4.69425 35.7374 5.33616 36.4006 5.33178 37.1948C5.32974 37.5545 5.49272 37.8953 5.77407 38.1195C6.05541 38.3439 6.42428 38.4268 6.77404 38.3445L12.9638 36.8931C13.6195 36.7394 14.1205 36.1866 14.2108 35.5174C14.6675 32.1305 15.7664 28.9107 17.4769 25.9473C17.822 25.3489 17.754 24.594 17.307 24.0685L14.3553 20.6019C14.1246 20.3311 13.7853 20.1789 13.4274 20.1894C13.0715 20.1997 12.7394 20.3708 12.5246 20.6547L12.2688 20.9928C12.0776 21.2455 11.799 21.4045 11.4839 21.4406C11.17 21.4766 10.8615 21.3843 10.6167 21.1804C10.1543 20.7951 10.0919 20.0665 10.4779 19.5562L12.444 16.9566C12.8257 16.452 13.5468 16.3518 14.0514 16.7337C14.5239 17.091 14.645 17.7622 14.3271 18.2617C14.1427 18.5519 14.0946 18.908 14.1956 19.2367C14.2966 19.5653 14.5365 19.8332 14.8518 19.9695L18.9793 21.7547C19.6192 22.0316 20.3661 21.871 20.838 21.3544C22.7171 19.296 24.8952 17.5575 27.3125 16.1873C27.8981 15.8551 28.2245 15.1856 28.125 14.5208L27.1741 8.19439C27.1212 7.84227 26.9113 7.53322 26.6036 7.35411C26.2957 7.17484 25.923 7.1451 25.5913 7.27285L24.6906 7.61933C24.3659 7.74395 24.0139 7.73096 23.6994 7.58222C23.385 7.43364 23.1514 7.16889 23.0413 6.83682C22.8333 6.20931 23.196 5.49429 23.8503 5.24269L28.4495 3.47368C28.7742 3.34874 29.1262 3.36205 29.4407 3.51078C29.7551 3.65936 29.9888 3.92411 30.0989 4.25618C30.3068 4.88369 29.9441 5.59872 29.2898 5.85047L29.1655 5.89838C28.8292 6.02786 28.5708 6.30451 28.4648 6.64895C28.359 6.99339 28.4169 7.36742 28.6225 7.66348L32.2432 12.883C32.6262 13.435 33.323 13.6985 33.9773 13.5384C36.018 13.0386 38.1287 12.7851 40.2536 12.7851H40.2543C40.9471 12.7851 41.5681 12.3485 41.7997 11.6992L42.9985 8.34469C43.1061 8.04377 43.0863 7.71186 42.9437 7.42597C42.8012 7.13993 42.5484 6.92418 42.2432 6.82884C41.3702 6.55579 40.8149 5.69845 40.9226 4.79038C40.9801 4.30722 41.2339 3.86743 41.6372 3.55196C42.0607 3.22067 42.6026 3.06833 43.1247 3.13425L44.7711 3.34154C45.8383 3.47587 46.6156 4.41979 46.504 5.4456C46.4177 6.2375 45.8633 6.87972 45.0916 7.08169C44.5264 7.22964 44.1558 7.77072 44.2224 8.35126L44.639 11.9864C44.7184 12.6801 45.2309 13.2472 45.915 13.3976C48.5377 13.9738 51.051 14.9503 53.3843 16.2995C53.9688 16.6377 54.7124 16.5795 55.2352 16.1552L60.2028 12.1229C60.4793 11.8985 60.6389 11.5608 60.637 11.2048C60.6349 10.8489 60.4716 10.5129 60.193 10.2916L59.4372 9.69145C59.1648 9.47523 58.9973 9.16524 58.9657 8.81845C58.9342 8.47229 59.0435 8.13661 59.2738 7.87312C59.7086 7.37509 60.5088 7.32468 61.058 7.76039L64.9173 10.8245C65.1897 11.0407 65.3572 11.3507 65.3888 11.6973C65.4203 12.0435 65.311 12.3792 65.0807 12.6428C64.6458 13.1405 63.8451 13.191 63.2968 12.7557L63.1927 12.673C62.9103 12.4487 62.5405 12.3667 62.1902 12.4503C61.8395 12.5339 61.5468 12.7739 61.396 13.1013L58.7352 18.8772C58.4539 19.4881 58.5815 20.2227 59.0522 20.7051C59.2191 20.876 59.384 21.053 59.5802 21.266C60.0193 21.7433 60.7622 21.7739 61.2394 21.3346C61.7165 20.8953 61.7472 20.1526 61.308 19.6754C61.225 19.585 61.1469 19.5005 61.0711 19.4195L63.0036 15.2246C64.3555 15.6667 65.8767 15.3018 66.8494 14.1881C67.5061 13.4365 67.8179 12.4762 67.7274 11.4844C67.6384 10.5065 67.1463 9.59579 66.3774 8.9855L62.5181 5.92155C60.9761 4.69738 58.7742 4.8757 57.5051 6.32846C56.8484 7.08012 56.5366 8.04033 56.6271 9.03216C56.7013 9.84598 57.0543 10.6135 57.6142 11.1998L54.1344 14.025C51.8611 12.7617 49.4369 11.819 46.9156 11.2176L46.6576 8.96515C47.851 8.30508 48.6882 7.08952 48.8396 5.70001C49.089 3.40823 47.3958 1.30511 45.0653 1.01156L43.4189 0.804265C42.2813 0.661165 41.1044 0.988384 40.1915 1.70216C39.2915 2.40591 38.7232 3.40432 38.5915 4.51357C38.3999 6.12618 39.1439 7.66708 40.436 8.53851L39.7561 10.4409C37.7774 10.4747 35.8108 10.711 33.8962 11.1448L31.2684 7.35661C32.3354 6.4166 32.7937 4.92064 32.3285 3.5172C32.0143 2.56983 31.3455 1.81363 30.4452 1.38778C29.5575 0.96803 28.5232 0.929359 27.6069 1.28178L23.0078 3.05064C21.1699 3.75737 20.2056 5.7451 20.8126 7.5758C21.1267 8.52317 21.7954 9.27937 22.6958 9.70523C23.4345 10.0545 24.2744 10.1402 25.0644 9.95557L25.7308 14.3891C23.4122 15.7561 21.303 17.4385 19.4496 19.399L16.7985 18.2525C17.0139 16.9973 16.5344 15.6667 15.4685 14.8604C14.7237 14.2971 13.8045 14.0571 12.8792 14.1859C11.9543 14.3142 11.1347 14.7951 10.5715 15.5399L8.60521 18.1395C7.45462 19.6603 7.67804 21.7887 9.11373 22.9846C9.85662 23.6035 10.7933 23.884 11.7521 23.7737C12.3566 23.7044 12.9309 23.4759 13.4166 23.1216L15.1953 25.211C13.5517 28.1758 12.4625 31.3697 11.953 34.718L7.40938 35.7834C6.8578 34.4069 5.52325 33.4099 3.96325 33.3687C2.94762 33.3432 1.98523 33.7219 1.24249 34.4385C0.488477 35.1662 0.0504118 36.1806 0.0408614 37.2218L0.00015483 41.7505C-0.00892587 42.7709 0.381701 43.732 1.09986 44.4567C1.81802 45.1815 2.77572 45.5806 3.7962 45.5806C5.65148 45.5807 7.2132 44.2476 7.56547 42.4887Z" fill="white"/>
<path d="M34.4381 36.0788C35.0109 35.7752 35.2293 35.0644 34.9256 34.4914C34.622 33.9187 33.9115 33.6998 33.338 34.0039C30.5319 35.4912 27.3335 35.0981 25.7339 33.0684C24.8363 31.9299 24.5276 30.4211 24.8645 28.8202C25.2177 27.1415 26.2278 25.5742 27.7088 24.407C29.1894 23.2397 30.9495 22.6244 32.664 22.672C34.2993 22.7181 35.6942 23.3707 36.5919 24.5094C37.9396 26.2192 37.9225 28.7714 36.5482 31.0113C36.2091 31.5642 36.3821 32.2872 36.9351 32.6263C37.4878 32.9654 38.2108 32.7922 38.5499 32.2396C40.4446 29.1515 40.3998 25.5466 38.4361 23.0555C37.1001 21.3606 35.0737 20.3907 32.7304 20.3246C30.4659 20.2588 28.1669 21.0554 26.2549 22.5627C24.3427 24.0699 23.0329 26.1206 22.5663 28.3366C22.0834 30.6306 22.5535 32.8275 23.8894 34.5223C25.2961 36.3068 27.4988 37.2455 29.8686 37.2454C31.3783 37.2454 32.9557 36.8646 34.4381 36.0788Z" fill="white"/>
<path d="M57.2225 25.5482C57.2225 23.1138 54.957 21.1333 52.1723 21.1333C49.3877 21.1333 47.1221 23.1138 47.1221 25.5482C47.1221 27.9826 49.3877 29.9632 52.1723 29.9632C54.957 29.9632 57.2225 27.9826 57.2225 25.5482ZM49.4707 25.5482C49.4707 24.4087 50.6826 23.4817 52.1725 23.4817C53.6622 23.4817 54.8742 24.4087 54.8742 25.5482C54.8742 26.6877 53.6622 27.6147 52.1725 27.6147C50.6826 27.6147 49.4707 26.6877 49.4707 25.5482Z" fill="white"/>
<path d="M43.5959 45.7295C43.5959 42.746 41.1687 40.3188 38.1853 40.3188C35.2016 40.3188 32.7744 42.746 32.7744 45.7295C32.7744 48.713 35.2016 51.1402 38.1853 51.1402C41.1687 51.1402 43.5959 48.713 43.5959 45.7295ZM35.123 45.7295C35.123 44.041 36.4967 42.6673 38.1854 42.6673C39.8738 42.6673 41.2476 44.041 41.2476 45.7295C41.2476 47.418 39.874 48.7917 38.1854 48.7917C36.4967 48.7917 35.123 47.418 35.123 45.7295Z" fill="white"/>
<path d="M58.9038 43.5224C58.9038 41.2022 57.0162 39.3147 54.6961 39.3147C52.3762 39.3147 50.4886 41.2022 50.4886 43.5224C50.4886 45.8425 52.3762 47.73 54.6961 47.73C57.0162 47.7299 58.9038 45.8425 58.9038 43.5224ZM52.8369 43.5224C52.8369 42.4972 53.671 41.6632 54.696 41.6632C55.7212 41.6632 56.5552 42.4972 56.5552 43.5224C56.5552 44.5475 55.7212 45.3816 54.696 45.3816C53.6711 45.3814 52.8369 44.5475 52.8369 43.5224Z" fill="white"/>
<path d="M43.4937 62.4484C45.7671 62.4484 47.6169 60.5988 47.6169 58.3252C47.6169 56.0517 45.7673 54.2019 43.4937 54.2019C41.22 54.2019 39.3702 56.0516 39.3702 58.3252C39.3702 60.5988 41.2199 62.4484 43.4937 62.4484ZM43.4937 56.5504C44.4723 56.5504 45.2685 57.3465 45.2685 58.3252C45.2685 59.3039 44.4723 60.1 43.4937 60.1C42.515 60.1 41.7187 59.3039 41.7187 58.3252C41.7187 57.3465 42.515 56.5504 43.4937 56.5504Z" fill="white"/>
<path d="M25.0408 55.5172C27.3822 55.5172 29.2871 53.6123 29.2871 51.2709C29.2871 48.9295 27.3822 47.0246 25.0408 47.0246C22.6993 47.0246 20.7944 48.9295 20.7944 51.2709C20.7944 53.6123 22.6993 55.5172 25.0408 55.5172ZM25.0408 49.373C26.0874 49.373 26.9386 50.2244 26.9386 51.2709C26.9386 52.3174 26.0872 53.1688 25.0408 53.1688C23.9943 53.1688 23.1429 52.3174 23.1429 51.2709C23.1429 50.2244 23.9943 49.373 25.0408 49.373Z" fill="white"/>
<path d="M48.9517 36.5753C48.9517 35.9269 48.4261 35.4011 47.7774 35.4011H46.7394C46.0908 35.4011 45.5652 35.9269 45.5652 36.5753C45.5652 37.2238 46.0908 37.7496 46.7394 37.7496H47.7774C48.4261 37.7496 48.9517 37.2238 48.9517 36.5753Z" fill="white"/>
<path d="M32.8822 58.2751H33.9488C34.5974 58.2751 35.123 57.7494 35.123 57.1009C35.123 56.4524 34.5974 55.9267 33.9488 55.9267H32.8822C32.2336 55.9267 31.708 56.4524 31.708 57.1009C31.708 57.7494 32.2337 58.2751 32.8822 58.2751Z" fill="white"/>
<path d="M22.996 41.1748C23.6447 41.1748 24.1703 40.6491 24.1703 40.0006C24.1703 39.3521 23.6447 38.8264 22.996 38.8264H21.9687C21.32 38.8264 20.7944 39.3521 20.7944 40.0006C20.7944 40.6491 21.32 41.1748 21.9687 41.1748H22.996Z" fill="white"/>
<path d="M43.8514 20.6311C44.5001 20.6311 45.0256 20.1053 45.0256 19.4568C45.0256 18.8083 44.5001 18.2826 43.8514 18.2826H42.4217C41.773 18.2826 41.2474 18.8083 41.2474 19.4568C41.2474 20.1053 41.773 20.6311 42.4217 20.6311H43.8514Z" fill="white"/>
<path d="M51.6628 52.1039C51.0141 52.1039 50.4885 52.6296 50.4885 53.2781C50.4885 53.9266 51.0141 54.4524 51.6628 54.4524H53.2415C53.8902 54.4524 54.4158 53.9266 54.4158 53.2781C54.4158 52.6296 53.8902 52.1039 53.2415 52.1039H51.6628Z" fill="white"/>
</g>
<defs>
<clipPath id="clip0">
<rect width="80" height="80" fill="white"/>
</clipPath>
</defs>
</svg>
