<svg width="80" height="80" viewBox="0 0 80 80" fill="none" xmlns="http://www.w3.org/2000/svg">
<path d="M79.997 71.7906C79.4262 56.0366 75.8921 42.4083 69.7766 32.3789C64.6631 23.9925 57.9045 18.4855 51.2343 17.27C50.5387 17.143 49.8704 17.3272 49.3013 17.802C47.8429 19.0188 46.9421 22.3458 46.4607 28.9797C45.3723 27.6958 44.8068 26.5299 44.8068 25.5456V17.8563C44.8068 17.2078 44.281 16.682 43.6326 16.682C42.9841 16.682 42.4584 17.2078 42.4584 17.8563V25.5456C42.4584 27.5849 43.7429 29.8083 46.2735 32.1594C46.2026 33.6647 46.1471 35.3056 46.1062 37.0905C44.0343 35.4917 42.3037 33.7484 40.9492 31.8884C40.7282 31.585 40.3754 31.4055 40.0001 31.4055C39.6246 31.4055 39.272 31.585 39.051 31.8884C37.6965 33.7484 35.9659 35.4917 33.894 37.0905C33.8529 35.3056 33.7976 33.6645 33.7266 32.1594C36.2573 29.8083 37.5418 27.5849 37.5418 25.5456V8.41439C37.5418 7.05892 38.6446 5.9561 40.0001 5.9561C41.3556 5.9561 42.4584 7.05892 42.4584 8.41439V13.1594C42.4584 13.8078 42.9841 14.3336 43.6326 14.3336C44.281 14.3336 44.8068 13.8078 44.8068 13.1594V8.41439C44.8068 5.76392 42.6506 3.60767 40.0001 3.60767C37.3496 3.60767 35.1934 5.76392 35.1934 8.41439V25.5456C35.1934 26.5297 34.6279 27.6958 33.5395 28.9797C33.0579 22.3458 32.1573 19.0188 30.6988 17.802C30.1298 17.3272 29.4612 17.1433 28.7659 17.27C25.1893 17.9217 21.4788 19.8599 18.0359 22.875C14.2781 26.1658 10.981 30.5614 8.23665 35.9399C7.94196 36.5175 8.17118 37.2247 8.74884 37.5194C9.32633 37.8141 10.0335 37.5849 10.3284 37.0072C15.2515 27.3589 22.2915 20.8478 29.1681 19.5839C29.3346 19.6883 30.4681 20.6628 31.106 28.0617C31.5766 33.5189 31.637 40.6117 31.637 46.1813C31.637 56.5389 30.5924 62.4017 28.1443 65.7849C25.9432 68.8266 22.5788 69.9125 16.7456 70.9553C12.7418 71.671 8.18587 72.9789 5.06899 73.95C4.41118 74.155 3.7193 74.0324 3.17118 73.6135C2.6243 73.1956 2.32509 72.5624 2.34993 71.876C2.77227 60.2142 4.7968 49.9185 8.36696 41.2745C8.61446 40.6752 8.3293 39.9886 7.72993 39.7409C7.13055 39.4936 6.44384 39.7786 6.19634 40.378C2.51915 49.2803 0.435398 59.8491 0.00289789 71.7906C-0.0491334 73.2269 0.602117 74.6058 1.74509 75.4791C2.52962 76.0786 3.48305 76.3924 4.44805 76.3922C4.8904 76.3922 5.3354 76.3263 5.76743 76.1917C8.82024 75.2405 13.2748 73.961 17.1587 73.2666C22.4813 72.3152 27.1249 71.1991 30.0466 67.1613C32.8073 63.3463 33.9851 57.0717 33.9851 46.181C33.9851 43.9553 33.9723 41.8874 33.946 39.9647C36.3304 38.3031 38.3599 36.4678 40.0001 34.4908C41.6401 36.468 43.6698 38.3031 46.0541 39.9647C46.0279 41.8874 46.0151 43.9553 46.0151 46.181C46.0151 57.0717 47.1929 63.3461 49.9535 67.1613C52.8754 71.1991 57.519 72.3153 62.8416 73.2666C63.4285 73.3716 64.0524 73.4942 64.696 73.6313C65.3301 73.7661 65.954 73.3616 66.089 72.7274C66.2241 72.0931 65.8195 71.4696 65.1851 71.3344C64.5165 71.192 63.867 71.0642 63.2548 70.9549C57.4215 69.9122 54.0571 68.8263 51.856 65.7844C49.4079 62.4013 48.3634 56.5385 48.3634 46.1808C48.3634 40.6113 48.4237 33.5184 48.8943 28.0613C49.5324 20.6605 50.6663 19.6874 50.8324 19.5834C56.8385 20.6863 63.0115 25.7942 67.772 33.6013C73.6784 43.2878 77.0943 56.5228 77.6506 71.8755C77.6754 72.5619 77.3762 73.1952 76.8293 73.613C76.2812 74.0317 75.5896 74.1547 74.9315 73.9496C73.1538 73.3958 71.4262 72.8928 69.797 72.4549C69.1706 72.2864 68.5266 72.6577 68.3582 73.2839C68.1899 73.9102 68.5612 74.5544 69.1874 74.7227C70.7871 75.1525 72.4846 75.6467 74.2331 76.1916C74.6651 76.3263 75.1099 76.3921 75.5524 76.3921C76.5173 76.3921 77.4707 76.0783 78.2552 75.4789C79.3977 74.6056 80.0491 73.2269 79.997 71.7906Z" fill="black"/>
<path d="M10.5141 56.5694C9.86562 56.5694 9.33984 57.0952 9.33984 57.7436C9.33984 58.3921 9.86562 58.9178 10.5141 58.9178H11.4825C11.627 59.593 11.8941 60.223 12.2584 60.7844L11.5716 61.4713C11.113 61.9299 11.113 62.6733 11.5716 63.1318C11.8008 63.361 12.1013 63.4757 12.4019 63.4757C12.7023 63.4757 13.0028 63.361 13.2322 63.1318L13.9191 62.4449C14.4805 62.8093 15.1105 63.0763 15.7856 63.2208V64.1893C15.7856 64.8377 16.3114 65.3635 16.9598 65.3635C17.6083 65.3635 18.1341 64.8378 18.1341 64.1893V63.2208C18.8092 63.0761 19.4392 62.8093 20.0006 62.4449L20.6875 63.1318C20.9167 63.361 21.2172 63.4757 21.5178 63.4757C21.8184 63.4757 22.1188 63.361 22.3481 63.1318C22.8067 62.6732 22.8067 61.9297 22.3481 61.4713L21.6613 60.7844C22.0256 60.223 22.2927 59.593 22.4372 58.9178H23.4058C24.0542 58.9178 24.58 58.3921 24.58 57.7436C24.58 57.0952 24.0542 56.5694 23.4058 56.5694H22.4372C22.2925 55.8943 22.0256 55.2642 21.6613 54.7028L22.3481 54.016C22.8067 53.5575 22.8067 52.8139 22.3481 52.3555C21.8897 51.8971 21.1461 51.8971 20.6877 52.3555L20.0008 53.0424C19.4394 52.678 18.8094 52.411 18.1342 52.2664V51.298C18.1342 50.6496 17.6084 50.1238 16.96 50.1238C16.3116 50.1238 15.7858 50.6496 15.7858 51.298V52.2664C15.1106 52.4111 14.4806 52.678 13.9192 53.0424L13.2323 52.3555C12.7739 51.8971 12.0303 51.8971 11.5719 52.3555C11.1133 52.8141 11.1133 53.5575 11.5719 54.016L12.2588 54.7028C11.8944 55.2642 11.6273 55.8943 11.4828 56.5694H10.5141ZM16.9598 54.4899C18.7539 54.4899 20.2134 55.9496 20.2134 57.7436C20.2134 59.5377 18.7538 60.9974 16.9598 60.9974C15.1658 60.9974 13.7061 59.5377 13.7061 57.7436C13.7061 55.9496 15.1658 54.4899 16.9598 54.4899Z" fill="black"/>
<path d="M63.3372 47.6331C63.5665 47.8623 63.8669 47.977 64.1676 47.977C64.4682 47.977 64.7685 47.8623 64.9979 47.6331C65.4565 47.1747 65.4565 46.4311 64.9979 45.9727L64.311 45.2858C64.6754 44.7244 64.9424 44.0944 65.0869 43.4192H66.0555C66.704 43.4192 67.2297 42.8934 67.2297 42.245C67.2297 41.5966 66.704 41.0708 66.0555 41.0708H65.0869C64.9422 40.3956 64.6754 39.7656 64.311 39.2042L64.9979 38.5173C65.4565 38.0589 65.4565 37.3153 64.9979 36.8569C64.5394 36.3984 63.7958 36.3984 63.3374 36.8569L62.6505 37.5437C62.0891 37.1794 61.4591 36.9123 60.784 36.7678V35.7992C60.784 35.1508 60.2582 34.625 59.6097 34.625C58.9613 34.625 58.4355 35.1508 58.4355 35.7992V36.7678C57.7604 36.9123 57.1304 37.1794 56.569 37.5437L55.8821 36.8569C55.4236 36.3983 54.6802 36.3983 54.2216 36.8569C53.763 37.3153 53.763 38.0587 54.2216 38.5173L54.9085 39.2042C54.5441 39.7656 54.2771 40.3956 54.1326 41.0708H53.164C52.5155 41.0708 51.9897 41.5966 51.9897 42.245C51.9897 42.8934 52.5155 43.4192 53.164 43.4192H54.1326C54.2772 44.0944 54.5441 44.7244 54.9085 45.2858L54.2216 45.9727C53.763 46.4312 53.763 47.1747 54.2216 47.6331C54.4508 47.8625 54.7513 47.977 55.0519 47.977C55.3524 47.977 55.6529 47.8623 55.8822 47.6331L56.569 46.9462C57.1304 47.3106 57.7604 47.5777 58.4355 47.7223V48.6908C58.4355 49.3392 58.9612 49.865 59.6097 49.865C60.2583 49.865 60.784 49.3392 60.784 48.6908V47.7223C61.4593 47.5777 62.0891 47.3108 62.6507 46.9462L63.3372 47.6331ZM59.6096 45.4987C57.8155 45.4987 56.356 44.0392 56.356 42.245C56.356 40.4509 57.8155 38.9914 59.6096 38.9914C61.4037 38.9914 62.8633 40.4511 62.8633 42.245C62.8633 44.0392 61.4038 45.4987 59.6096 45.4987Z" fill="black"/>
<path d="M22.3968 28.0628C20.1867 28.0628 18.3885 29.8609 18.3885 32.0711C18.3885 34.2812 20.1867 36.0794 22.3968 36.0794C24.607 36.0794 26.4051 34.2812 26.4051 32.0711C26.4051 29.8608 24.607 28.0628 22.3968 28.0628ZM22.3968 33.7311C21.4815 33.7311 20.7368 32.9864 20.7368 32.0711C20.7368 31.1558 21.4815 30.4111 22.3968 30.4111C23.3121 30.4111 24.0568 31.1558 24.0568 32.0711C24.0568 32.9864 23.3121 33.7311 22.3968 33.7311Z" fill="black"/>
<path d="M54.5908 62.6351C54.5908 64.8452 56.3889 66.6433 58.5991 66.6433C60.8093 66.6433 62.6074 64.8452 62.6074 62.6351C62.6074 60.4249 60.8093 58.6268 58.5991 58.6268C56.3889 58.6268 54.5908 60.4247 54.5908 62.6351ZM60.2591 62.6351C60.2591 63.5504 59.5144 64.2949 58.5991 64.2949C57.6838 64.2949 56.9391 63.5502 56.9391 62.6351C56.9391 61.7197 57.6838 60.9751 58.5991 60.9751C59.5146 60.9751 60.2591 61.7197 60.2591 62.6351Z" fill="black"/>
<path d="M19.6302 43.9792C19.6302 46.1894 21.4284 47.9875 23.6385 47.9875C25.8487 47.9875 27.6468 46.1894 27.6468 43.9792C27.6468 41.7691 25.8487 39.9709 23.6385 39.9709C21.4284 39.9709 19.6302 41.7691 19.6302 43.9792ZM25.2985 43.9792C25.2985 44.8945 24.5538 45.6392 23.6385 45.6392C22.7232 45.6392 21.9785 44.8945 21.9785 43.9792C21.9785 43.0639 22.7232 42.3192 23.6385 42.3192C24.5538 42.3192 25.2985 43.0639 25.2985 43.9792Z" fill="black"/>
<path d="M68.3955 58.9178C70.6056 58.9178 72.4038 57.1197 72.4038 54.9095C72.4038 52.6994 70.6056 50.9012 68.3955 50.9012C66.1853 50.9012 64.3872 52.6994 64.3872 54.9095C64.3872 57.1197 66.1852 58.9178 68.3955 58.9178ZM68.3955 53.2495C69.3108 53.2495 70.0555 53.9942 70.0555 54.9095C70.0555 55.8248 69.3108 56.5695 68.3955 56.5695C67.4802 56.5695 66.7355 55.8248 66.7355 54.9095C66.7355 53.9941 67.4802 53.2495 68.3955 53.2495Z" fill="black"/>
</svg>
