<svg width="185" height="111" viewBox="0 0 185 111" fill="none" xmlns="http://www.w3.org/2000/svg">
<g clip-path="url(#clip0)">
<path fill-rule="evenodd" clip-rule="evenodd" d="M53.3654 0H25.4121C11.3774 0 0 11.6315 0 25.6662C0 39.7008 11.3774 51.3324 25.4121 51.3324H53.3654V37.1017H25.4121C19.4202 37.1017 14.2308 32.0261 14.2308 25.6662C14.2308 19.3062 19.4203 14.2308 25.4121 14.2308H53.3654V0Z" fill="white"/>
<path fill-rule="evenodd" clip-rule="evenodd" d="M53.3654 56.4148H25.4121C11.3774 56.4148 0 68.0464 0 82.081C0 96.1156 11.3774 107.747 25.4121 107.747H53.3654V93.5164H25.4121C19.4202 93.5164 14.2308 88.4409 14.2308 82.081C14.2308 75.7211 19.4203 70.6456 25.4121 70.6456H53.3654V56.4148Z" fill="white"/>
<path fill-rule="evenodd" clip-rule="evenodd" d="M59.2102 51.3324H88.6882C102.723 51.3324 114.1 39.7008 114.1 25.6662C114.1 11.6315 102.723 0 88.6882 0H59.2102V14.2308H88.6882C94.6801 14.2308 99.8695 19.3062 99.8695 25.6662C99.8695 32.0261 94.6801 37.1017 88.6882 37.1017H59.2102V51.3324Z" fill="#00CCFF"/>
<path d="M73.1869 0H59.2102V51.3324H73.1869V0Z" fill="#00CCFF"/>
<path d="M64.3561 58.2889H60.5681V67.342H62.069V63.8875H64.3561C66.3334 63.8875 67.5722 62.8156 67.5722 61.0764C67.5722 59.3611 66.3334 58.2889 64.3561 58.2889ZM64.1655 62.6011H62.069V59.5992H64.1655C65.4043 59.5992 66.0475 60.0995 66.0475 61.1003C66.0475 62.0769 65.4043 62.6011 64.1655 62.6011ZM68.8263 59.1944H70.3988V57.7647H68.8263V59.1944ZM68.898 67.342H70.3274V60.1948H68.898V67.342ZM77.037 63.673C77.6801 63.3874 78.0613 62.8392 78.0613 62.0532C78.0613 60.7666 77.0847 60.1948 75.5122 60.1948H72.32V67.342H75.7742C77.3228 67.342 78.2519 66.6749 78.2519 65.3883C78.2519 64.5309 77.8232 63.9591 77.037 63.673ZM73.7016 61.3384H75.5836C76.2507 61.3384 76.6558 61.6482 76.6558 62.2199C76.6558 62.887 76.3224 63.149 75.5122 63.149H73.7016V61.3384ZM75.6314 66.1984H73.7016V64.2211H75.5361C76.346 64.2211 76.8225 64.6023 76.8225 65.2216C76.8225 65.8412 76.3938 66.1984 75.6314 66.1984ZM84.5569 60.1948V63.0537H81.0785V60.1948H79.6491V67.342H81.0785V64.3403H84.5569V67.342H85.9863V60.1948H84.5569ZM88.7649 64.2211H94.2684C94.3159 64.0542 94.3159 63.9352 94.3159 63.7685C94.3159 61.529 92.9579 60.0757 90.8614 60.0757C88.7649 60.0757 87.3355 61.5765 87.3355 63.7685C87.3355 65.8887 88.6221 67.4612 90.9806 67.4612C92.4814 67.4612 93.4821 66.8894 94.0778 66.1746L93.101 65.3169C92.6959 65.8412 92.0288 66.2462 90.9806 66.2462C89.7178 66.2462 88.9319 65.46 88.7649 64.2211ZM90.8614 61.267C91.9335 61.267 92.672 61.9577 92.8626 63.1251H88.7888C89.0033 61.9816 89.7417 61.267 90.8614 61.267ZM100.525 60.1948V63.0537H97.0472V60.1948H95.6178V67.342H97.0472V64.3403H100.525V67.342H101.955V60.1948H100.525ZM106.878 67.4612C108.403 67.4612 109.665 66.6749 110.07 65.3169L108.712 64.8882C108.403 65.722 107.736 66.2462 106.878 66.2462C105.568 66.2462 104.757 65.2694 104.757 63.7685C104.757 62.2675 105.568 61.2909 106.878 61.2909C107.759 61.2909 108.403 61.8149 108.712 62.6486L110.07 62.2199C109.665 60.8619 108.426 60.0757 106.878 60.0757C104.757 60.0757 103.304 61.5765 103.304 63.7685C103.304 65.9601 104.757 67.4612 106.878 67.4612ZM114.612 62.887H112.658V60.1948H111.229V67.342H114.612C116.184 67.342 117.185 66.4604 117.185 65.1027C117.185 63.7447 116.208 62.887 114.612 62.887ZM114.469 66.1507H112.658V64.0542H114.469C115.303 64.0542 115.732 64.4354 115.732 65.1027C115.732 65.7695 115.303 66.1507 114.469 66.1507ZM123.251 67.342H124.991L121.87 63.0537L124.848 60.1948H123.037L119.821 63.3874V60.1948H118.391V67.342H119.821V65.0071L120.845 64.0305L123.251 67.342ZM130.652 60.1948L127.174 65.3408V60.1948H125.768V67.342H127.245L130.724 62.1483V67.342H132.129V60.1948H130.652ZM137.171 59.5278C138.41 59.5278 139.22 58.9082 139.339 57.8363L138.22 57.6458C138.148 58.2414 137.767 58.5748 137.171 58.5748C136.576 58.5748 136.195 58.2414 136.123 57.6458L135.003 57.8363C135.122 58.9082 135.933 59.5278 137.171 59.5278ZM138.887 60.1948L135.408 65.3408V60.1948H134.003V67.342H135.48L138.958 62.1483V67.342H140.364V60.1948H138.887ZM66.5718 79.5477V73.6632H65.1423V79.5477H61.7592V73.6632H60.3298V80.8104H66.1428V82.4779H67.5008V79.5477H66.5718ZM69.422 77.6895H74.9252C74.973 77.5226 74.973 77.4036 74.973 77.2369C74.973 74.9974 73.615 73.5441 71.5185 73.5441C69.422 73.5441 67.9925 75.0449 67.9925 77.2369C67.9925 79.3571 69.2792 80.9296 71.6377 80.9296C73.1385 80.9296 74.1392 80.3578 74.7346 79.643L73.758 78.7853C73.353 79.3096 72.6859 79.7146 71.6377 79.7146C70.3749 79.7146 69.5887 78.9284 69.422 77.6895ZM71.5185 74.7354C72.5906 74.7354 73.3291 75.4261 73.5197 76.5935H69.4459C69.6603 75.45 70.3988 74.7354 71.5185 74.7354ZM81.1824 73.6632V76.5221H77.704V73.6632H76.2746V80.8104H77.704V77.8087H81.1824V80.8104H82.6119V73.6632H81.1824ZM90.1793 73.6632H83.604V74.926H86.1769V80.8104H87.6064V74.926H90.1793V73.6632ZM94.9591 73.5441C93.9347 73.5441 93.0771 73.9969 92.5053 74.7829L92.41 73.6632H91.1712V83.1928H92.6006V79.8574C93.1485 80.5484 93.9825 80.9296 94.9591 80.9296C96.7936 80.9296 98.0802 79.4285 98.0802 77.2369C98.0802 74.9974 96.8414 73.5441 94.9591 73.5441ZM94.5779 79.7146C93.3154 79.7146 92.5053 78.7378 92.5053 77.2369C92.5053 75.7359 93.3154 74.7593 94.5779 74.7593C95.8406 74.7593 96.6269 75.7359 96.6269 77.2369C96.6269 78.7378 95.8406 79.7146 94.5779 79.7146ZM107.736 80.8104H109.475L106.354 76.5221L109.332 73.6632H107.521L104.305 76.8558V73.6632H102.875V80.8104H104.305V78.4755L105.329 77.4989L107.736 80.8104ZM113.159 80.9296C115.303 80.9296 116.78 79.4285 116.78 77.2369C116.78 74.9974 115.351 73.5441 113.159 73.5441C111.014 73.5441 109.537 75.0449 109.537 77.2369C109.537 79.4763 110.967 80.9296 113.159 80.9296ZM113.159 79.7146C111.848 79.7146 110.991 78.7378 110.991 77.2369C110.991 75.7359 111.848 74.7593 113.159 74.7593C114.469 74.7593 115.327 75.7359 115.327 77.2369C115.327 78.7378 114.469 79.7146 113.159 79.7146ZM123.037 73.6632V76.5221H119.559V73.6632H118.129V80.8104H119.559V77.8087H123.037V80.8104H124.466V73.6632H123.037ZM132.034 73.6632H125.458V74.926H128.031V80.8104H129.461V74.926H132.034V73.6632ZM136.814 73.5441C135.789 73.5441 134.932 73.9969 134.36 74.7829L134.265 73.6632H133.026V83.1928H134.455V79.8574C135.003 80.5484 135.837 80.9296 136.814 80.9296C138.648 80.9296 139.935 79.4285 139.935 77.2369C139.935 74.9974 138.696 73.5441 136.814 73.5441ZM136.433 79.7146C135.17 79.7146 134.36 78.7378 134.36 77.2369C134.36 75.7359 135.17 74.7593 136.433 74.7593C137.695 74.7593 138.482 75.7359 138.482 77.2369C138.482 78.7378 137.695 79.7146 136.433 79.7146ZM144.381 80.9296C146.526 80.9296 148.002 79.4285 148.002 77.2369C148.002 74.9974 146.573 73.5441 144.381 73.5441C142.237 73.5441 140.76 75.0449 140.76 77.2369C140.76 79.4763 142.189 80.9296 144.381 80.9296ZM144.381 79.7146C143.071 79.7146 142.213 78.7378 142.213 77.2369C142.213 75.7359 143.071 74.7593 144.381 74.7593C145.692 74.7593 146.549 75.7359 146.549 77.2369C146.549 78.7378 145.692 79.7146 144.381 79.7146ZM155.332 73.6632H149.542V77.3559C149.542 79.3334 149.352 79.5001 148.733 79.5001H148.351V80.8104C148.518 80.8343 148.756 80.8582 149.018 80.8582C150.4 80.8582 150.948 80.0958 150.948 77.4989V74.926H153.902V80.8104H155.332V73.6632ZM163.566 73.5441C161.732 73.5441 160.397 74.7354 160.112 76.5221H158.635V73.6632H157.205V80.8104H158.635V77.8087H160.088C160.302 79.7146 161.612 80.9296 163.566 80.9296C165.639 80.9296 167.068 79.4285 167.068 77.2369C167.068 74.9974 165.687 73.5441 163.566 73.5441ZM163.566 79.7146C162.303 79.7146 161.494 78.7378 161.494 77.2369C161.494 75.7359 162.303 74.7593 163.566 74.7593C164.805 74.7593 165.615 75.7359 165.615 77.2369C165.615 78.7378 164.805 79.7146 163.566 79.7146ZM177.557 73.6632H170.982V74.926H173.555V80.8104H174.984V74.926H177.557V73.6632ZM184.172 79.5716C183.862 79.5716 183.719 79.4285 183.719 79.119V75.9028C183.719 74.4256 182.671 73.5441 180.956 73.5441C179.717 73.5441 178.692 73.973 177.858 74.7593L178.74 75.6883C179.312 75.0927 180.074 74.7354 180.884 74.7354C181.789 74.7354 182.385 75.1166 182.385 75.6883C182.385 76.2362 181.861 76.3315 180.789 76.4746C179.407 76.6888 177.716 77.07 177.716 78.8331C177.716 80.0719 178.645 80.9296 180.05 80.9296C181.098 80.9296 182.051 80.4531 182.552 79.7146C182.647 80.5484 183.052 80.8582 183.934 80.8582C184.172 80.8582 184.362 80.8343 184.434 80.8104V79.5716H184.172ZM180.289 79.7621C179.55 79.7621 179.121 79.4049 179.121 78.7378C179.121 77.8087 180.05 77.6657 180.956 77.5226C181.647 77.4037 182.075 77.332 182.337 77.1653V78.0944C182.337 78.9998 181.384 79.7621 180.289 79.7621ZM66.667 87.1317H60.3298V94.2788H61.7592V88.3944H65.2376V94.2788H66.667V87.1317ZM72.3286 87.0125C71.304 87.0125 70.4463 87.4653 69.8746 88.2513L69.7793 87.1317H68.5404V96.6612H69.9699V93.3258C70.518 94.0168 71.3518 94.398 72.3286 94.398C74.1628 94.398 75.4495 92.8969 75.4495 90.7053C75.4495 88.4658 74.2106 87.0125 72.3286 87.0125ZM71.9474 93.183C70.6847 93.183 69.8746 92.2062 69.8746 90.7053C69.8746 89.2043 70.6847 88.2277 71.9474 88.2277C73.2099 88.2277 73.9961 89.2043 73.9961 90.7053C73.9961 92.2062 73.2099 93.183 71.9474 93.183ZM79.8958 94.398C82.0401 94.398 83.517 92.8969 83.517 90.7053C83.517 88.4658 82.0876 87.0125 79.8958 87.0125C77.7518 87.0125 76.2746 88.5133 76.2746 90.7053C76.2746 92.9447 77.704 94.398 79.8958 94.398ZM79.8958 93.183C78.5856 93.183 77.7279 92.2062 77.7279 90.7053C77.7279 89.2043 78.5856 88.2277 79.8958 88.2277C81.2063 88.2277 82.064 89.2043 82.064 90.7053C82.064 92.2062 81.2063 93.183 79.8958 93.183ZM92.6331 87.0602C91.7993 87.0602 91.0845 87.3936 90.608 88.0371V84.7493H89.1786V87.9893C88.7021 87.3698 88.0112 87.0602 87.1774 87.0602C85.5099 87.0602 84.3424 88.5133 84.3424 90.7053C84.3424 92.9208 85.4621 94.3502 87.1774 94.3502C88.0112 94.3502 88.7021 94.0168 89.1786 93.3736V96.6612H90.608V93.3973C91.0845 94.0168 91.7755 94.3502 92.6331 94.3502C94.277 94.3502 95.4681 92.8969 95.4681 90.7053C95.4681 88.4897 94.3484 87.0602 92.6331 87.0602ZM87.5347 93.183C86.4628 93.183 85.7957 92.2062 85.7957 90.7053C85.7957 89.2043 86.4628 88.2277 87.5347 88.2277C88.5829 88.2277 89.25 89.2043 89.25 90.7053C89.25 92.2062 88.5829 93.183 87.5347 93.183ZM92.2758 93.183C91.2037 93.183 90.5366 92.2062 90.5366 90.7053C90.5366 89.2043 91.2037 88.2277 92.2758 88.2277C93.3241 88.2277 94.0148 89.2043 94.0148 90.7053C94.0148 92.2062 93.3241 93.183 92.2758 93.183ZM96.8414 86.1312H98.4136V84.7015H96.8414V86.1312ZM96.9128 94.2788H98.3422V87.1317H96.9128V94.2788ZM106.505 87.1317H100.716V90.8243C100.716 92.8018 100.525 92.9686 99.9061 92.9686H99.5249V94.2788C99.6916 94.3027 99.93 94.3266 100.192 94.3266C101.574 94.3266 102.122 93.5642 102.122 90.9674V88.3944H105.076V94.2788H106.505V87.1317ZM114.192 93.04C113.882 93.04 113.739 92.8969 113.739 92.5874V89.3712C113.739 87.894 112.691 87.0125 110.976 87.0125C109.737 87.0125 108.712 87.4414 107.878 88.2277L108.76 89.1567C109.332 88.5611 110.094 88.2038 110.904 88.2038C111.809 88.2038 112.405 88.585 112.405 89.1567C112.405 89.7046 111.881 89.7999 110.809 89.943C109.427 90.1572 107.736 90.5384 107.736 92.3015C107.736 93.5403 108.665 94.398 110.07 94.398C111.118 94.398 112.071 93.9215 112.572 93.183C112.667 94.0168 113.072 94.3266 113.954 94.3266C114.192 94.3266 114.382 94.3027 114.454 94.2788V93.04H114.192ZM110.309 93.2306C109.57 93.2306 109.141 92.8733 109.141 92.2062C109.141 91.2771 110.07 91.1341 110.976 90.991C111.667 90.8721 112.095 90.8004 112.357 90.6337V91.5628C112.357 92.4682 111.404 93.2306 110.309 93.2306ZM120.544 94.2788H122.283L119.162 89.9905L122.14 87.1317H120.33L117.113 90.3242V87.1317H115.684V94.2788H117.113V91.9439L118.138 90.9674L120.544 94.2788ZM128.755 87.1317H122.179V88.3944H124.752V94.2788H126.182V88.3944H128.755V87.1317ZM134.631 87.1317L131.153 92.2776V87.1317H129.747V94.2788H131.224L134.702 89.0851V94.2788H136.108V87.1317H134.631ZM142.841 94.2788H144.581L141.46 89.9905L144.437 87.1317H142.627L139.411 90.3242V87.1317H137.981V94.2788H139.411V91.9439L140.435 90.9674L142.841 94.2788ZM150.242 87.1317L146.764 92.2776V87.1317H145.358V94.2788H146.835L150.313 89.0851V94.2788H151.719V87.1317H150.242ZM66.786 107.747L64.0702 104.102L66.667 100.6H65.047L63.1886 103.125L61.3544 100.6H59.6627L62.2596 104.102L59.5199 107.747H61.1874L63.1411 105.079L65.0707 107.747H66.786ZM72.5667 104.078C73.2099 103.793 73.5911 103.244 73.5911 102.458C73.5911 101.172 72.6142 100.6 71.042 100.6H67.8495V107.747H71.304C72.8526 107.747 73.7817 107.08 73.7817 105.794C73.7817 104.936 73.353 104.364 72.5667 104.078ZM69.2314 101.744H71.1134C71.7805 101.744 72.1855 102.053 72.1855 102.625C72.1855 103.292 71.8519 103.554 71.042 103.554H69.2314V101.744ZM71.1612 106.604H69.2314V104.626H71.0659C71.8758 104.626 72.3522 105.008 72.3522 105.627C72.3522 106.246 71.9235 106.604 71.1612 106.604ZM78.2283 107.866C80.3723 107.866 81.8495 106.365 81.8495 104.174C81.8495 101.934 80.4201 100.481 78.2283 100.481C76.084 100.481 74.6071 101.982 74.6071 104.174C74.6071 106.413 76.0365 107.866 78.2283 107.866ZM78.2283 106.651C76.9178 106.651 76.0601 105.675 76.0601 104.174C76.0601 102.673 76.9178 101.696 78.2283 101.696C79.5385 101.696 80.3962 102.673 80.3962 104.174C80.3962 105.675 79.5385 106.651 78.2283 106.651ZM86.9868 100.481C85.9624 100.481 85.1048 100.934 84.533 101.72L84.4377 100.6H83.1989V110.13H84.6283V106.794C85.1762 107.485 86.01 107.866 86.9868 107.866C88.8213 107.866 90.1077 106.365 90.1077 104.174C90.1077 101.934 88.8688 100.481 86.9868 100.481ZM86.6056 106.651C85.3429 106.651 84.533 105.675 84.533 104.174C84.533 102.673 85.3429 101.696 86.6056 101.696C87.8684 101.696 88.6546 102.673 88.6546 104.174C88.6546 105.675 87.8684 106.651 86.6056 106.651ZM94.5543 107.866C96.6983 107.866 98.1755 106.365 98.1755 104.174C98.1755 101.934 96.7461 100.481 94.5543 100.481C92.41 100.481 90.9331 101.982 90.9331 104.174C90.9331 106.413 92.3625 107.866 94.5543 107.866ZM94.5543 106.651C93.2438 106.651 92.3861 105.675 92.3861 104.174C92.3861 102.673 93.2438 101.696 94.5543 101.696C95.8645 101.696 96.7222 102.673 96.7222 104.174C96.7222 105.675 95.8645 106.651 94.5543 106.651ZM106.052 104.555C106.029 102.673 104.742 101.339 102.979 101.339C101.812 101.339 100.907 101.767 100.383 102.506C100.502 101.339 101.097 100.695 102.36 100.433L104.432 100.004C105.266 99.8138 105.743 99.3373 105.814 98.5274L105.838 98.2891L104.48 98.051L104.432 98.2654C104.385 98.5511 104.242 98.6942 103.98 98.7417L102.288 99.0992C100.097 99.5518 99.0959 101.005 99.0959 103.769C99.0959 106.27 100.454 107.866 102.598 107.866C104.647 107.866 106.076 106.484 106.052 104.555ZM102.598 106.651C101.407 106.651 100.597 105.77 100.597 104.507C100.597 103.244 101.383 102.458 102.598 102.458C103.813 102.458 104.576 103.268 104.576 104.579C104.576 105.841 103.813 106.651 102.598 106.651Z" fill="white"/>
<path d="M91.4835 18.8049H53.3654V32.7816H91.4835V18.8049Z" fill="white"/>
<path d="M61.9935 29.478H63.2801L61.5648 26.6728C62.4044 26.3691 62.9047 25.6901 62.9047 24.7609C62.9047 23.4923 61.9757 22.6882 60.4926 22.6882H57.6874V29.478H58.7951V26.8337H60.4032L61.9935 29.478ZM58.7951 23.671H60.3854C61.2967 23.671 61.7434 24.0462 61.7434 24.7788C61.7434 25.5115 61.2967 25.9046 60.3854 25.9046H58.7951V23.671ZM64.803 29.478H65.9288V22.6882H64.803V29.478ZM72.6691 22.6882L70.6323 28.3167L68.5597 22.6882H67.3625L69.9175 29.478H71.2933L73.8662 22.6882H72.6691ZM79.91 22.6882V27.6733L76.408 22.6882H75.3V29.478H76.3721V24.4572L79.8922 29.478H80.9821V22.6882H79.91ZM84.3276 28.4773V26.4764H87.0793V25.5115H84.3276V23.6889H87.8833V22.6882H83.2019V29.478H87.9727V28.4773H84.3276Z" fill="black"/>
</g>
<defs>
<clipPath id="clip0">
<rect width="185" height="110.288" fill="white"/>
</clipPath>
</defs>
</svg>
