<svg width="80" height="80" viewBox="0 0 80 80" fill="none" xmlns="http://www.w3.org/2000/svg">
<g clip-path="url(#clip0)">
<path d="M66.0624 18.5832C65.9653 18.4656 65.8447 18.3696 65.7083 18.3012C65.572 18.2329 65.4229 18.1938 65.2705 18.1863C65.1184 18.1808 64.9667 18.2062 64.8247 18.2609C64.6827 18.3157 64.5533 18.3988 64.4443 18.505L48.0987 34.8538L39.3524 43.6L18.5049 64.4469C18.3972 64.5549 18.3132 64.6841 18.2583 64.8264C18.2034 64.9687 18.1789 65.1209 18.1862 65.2733C18.1936 65.4256 18.2327 65.5747 18.301 65.7111C18.3693 65.8474 18.4654 65.968 18.583 66.065C25.0557 71.3872 33.2775 74.1097 41.6474 73.7024C50.0173 73.295 57.9359 69.787 63.8612 63.8614C69.7864 57.9359 73.294 50.017 73.7009 41.6472C74.1078 33.2773 71.3849 25.0555 66.0624 18.5832ZM49.3249 36.7207H51.8749V43.2794H42.7662L49.3249 36.7207ZM39.9999 71.5625C33.1083 71.5547 26.4081 69.294 20.9205 65.125L40.5787 45.4669H64.2318C64.3754 45.467 64.5177 45.4388 64.6504 45.3838C64.7832 45.3289 64.9038 45.2483 65.0054 45.1467C65.1069 45.0452 65.1875 44.9246 65.2424 44.7918C65.2974 44.6591 65.3256 44.5168 65.3255 44.3732V35.625C65.3256 35.4814 65.2974 35.3391 65.2424 35.2064C65.1875 35.0736 65.1069 34.953 65.0054 34.8515C64.9038 34.7499 64.7832 34.6693 64.6504 34.6144C64.5177 34.5594 64.3754 34.5312 64.2318 34.5313H51.5124L65.1249 20.9188C68.6838 25.5971 70.8647 31.1768 71.4217 37.0285C71.9787 42.8803 70.8896 48.7712 68.2771 54.0369C65.6647 59.3027 61.633 63.7338 56.6366 66.8304C51.6403 69.927 45.8781 71.566 39.9999 71.5625ZM63.138 36.7207V43.2794H54.0624V36.7207H63.138Z" fill="black"/>
<path d="M40 0C32.0888 0 24.3552 2.34596 17.7772 6.74122C11.1992 11.1365 6.07234 17.3836 3.04484 24.6927C0.0173312 32.0017 -0.774802 40.0444 0.768607 47.8036C2.31202 55.5629 6.12165 62.6902 11.7157 68.2843C17.3098 73.8784 24.4372 77.688 32.1964 79.2314C39.9556 80.7748 47.9983 79.9827 55.3074 76.9552C62.6164 73.9277 68.8635 68.8008 73.2588 62.2228C77.6541 55.6448 80 47.9113 80 40C79.9881 29.395 75.77 19.2278 68.2711 11.7289C60.7723 4.23001 50.605 0.0119105 40 0V0ZM40 77.8125C32.5214 77.8125 25.2108 75.5948 18.9925 71.4399C12.7743 67.285 7.92776 61.3796 5.06582 54.4702C2.20388 47.5609 1.45507 39.9581 2.91407 32.6231C4.37308 25.2882 7.97437 18.5507 13.2625 13.2625C18.5507 7.97435 25.2883 4.37306 32.6232 2.91406C39.9581 1.45505 47.5609 2.20387 54.4702 5.06581C61.3796 7.92774 67.2851 12.7743 71.44 18.9925C75.5949 25.2107 77.8125 32.5214 77.8125 40C77.8009 50.0249 73.8134 59.636 66.7247 66.7247C59.636 73.8134 50.025 77.8009 40 77.8125Z" fill="black"/>
<path d="M40.8075 36.4L61.5819 15.625C61.6896 15.5174 61.7736 15.3885 61.8286 15.2465C61.8836 15.1046 61.9084 14.9527 61.9013 14.8006C61.8943 14.6485 61.8555 14.4996 61.7876 14.3634C61.7197 14.2271 61.6241 14.1065 61.5069 14.0094C55.0378 8.64538 46.7996 5.88919 38.4051 6.28044C30.0106 6.6717 22.0644 10.1822 16.1223 16.1247C10.1802 22.0671 6.67025 30.0135 6.27955 38.4081C5.88884 46.8026 8.64558 55.0407 14.01 61.5094C14.1071 61.6266 14.2277 61.7223 14.3639 61.7902C14.5002 61.8581 14.6491 61.8968 14.8012 61.9037H14.8525C14.9961 61.9035 15.1382 61.8749 15.2708 61.8197C15.4033 61.7644 15.5237 61.6836 15.625 61.5819L32.0625 45.1444L40.8075 36.4ZM30.835 43.2794H21.25V36.7206H37.3937L30.835 43.2794ZM14.9444 59.17C10.2907 53.0983 8.00206 45.5424 8.50449 37.909C9.00692 30.2756 12.2662 23.0848 17.6755 17.6755C23.0848 12.2662 30.2756 9.00692 37.909 8.50449C45.5424 8.00207 53.0983 10.2907 59.17 14.9444L39.5812 34.5331H17.6437C16.8568 34.5338 16.1022 34.8465 15.5455 35.4026C14.9887 35.9588 14.6752 36.713 14.6737 37.5V42.5C14.6747 43.2871 14.9878 44.0416 15.5444 44.5981C16.1009 45.1547 16.8554 45.4678 17.6425 45.4687H28.6475L14.9444 59.17ZM17.6425 43.2794C17.4357 43.279 17.2375 43.1969 17.0911 43.0508C16.9447 42.9048 16.8621 42.7068 16.8612 42.5V37.5C16.8616 37.2929 16.944 37.0944 17.0904 36.9479C17.2369 36.8015 17.4354 36.7191 17.6425 36.7187H19.0625V43.2794H17.6425Z" fill="black"/>
<path d="M16.7969 31.7988C16.9405 31.7988 17.0828 31.7706 17.2155 31.7157C17.3483 31.6607 17.4689 31.5802 17.5705 31.4786C17.672 31.377 17.7526 31.2564 17.8075 31.1237C17.8625 30.9909 17.8907 30.8487 17.8906 30.705C17.891 30.0212 18.1626 29.3654 18.646 28.8817C19.1294 28.398 19.7849 28.1258 20.4688 28.125H34.9219C36.185 28.1235 37.396 27.6212 38.2894 26.7282C39.1827 25.8352 39.6855 24.6244 39.6875 23.3613V17.3456C39.6875 17.0556 39.5723 16.7774 39.3672 16.5722C39.162 16.3671 38.8838 16.2519 38.5938 16.2519C38.3037 16.2519 38.0255 16.3671 37.8204 16.5722C37.6152 16.7774 37.5 17.0556 37.5 17.3456V23.3613C37.4987 24.0444 37.2266 24.6992 36.7433 25.1821C36.2601 25.6651 35.6051 25.9367 34.9219 25.9375H20.4688C19.2053 25.939 17.994 26.4416 17.1006 27.335C16.2072 28.2284 15.7046 29.4397 15.7031 30.7031C15.7028 30.847 15.7309 30.9894 15.7857 31.1224C15.8405 31.2553 15.921 31.3762 16.0226 31.4779C16.1242 31.5797 16.2449 31.6604 16.3778 31.7155C16.5106 31.7705 16.6531 31.7988 16.7969 31.7988Z" fill="black"/>
<path d="M28.2031 24.1425C29.7773 24.1407 31.2865 23.5146 32.3996 22.4014C33.5127 21.2883 34.1388 19.7792 34.1406 18.205V16.0175C34.1406 15.7274 34.0254 15.4492 33.8203 15.2441C33.6152 15.039 33.337 14.9238 33.0469 14.9238C32.7568 14.9238 32.4786 15.039 32.2735 15.2441C32.0684 15.4492 31.9531 15.7274 31.9531 16.0175V18.205C31.952 19.1992 31.5565 20.1524 30.8535 20.8554C30.1505 21.5584 29.1973 21.9539 28.2031 21.955C27.913 21.955 27.6348 22.0702 27.4297 22.2754C27.2246 22.4805 27.1094 22.7587 27.1094 23.0488C27.1094 23.3388 27.2246 23.617 27.4297 23.8222C27.6348 24.0273 27.913 24.1425 28.2031 24.1425Z" fill="black"/>
</g>
<defs>
<clipPath id="clip0">
<rect width="80" height="80" fill="white"/>
</clipPath>
</defs>
</svg>
