<svg width="80" height="80" viewBox="0 0 80 80" fill="none" xmlns="http://www.w3.org/2000/svg">
<g clip-path="url(#clip0)">
<path d="M68.2844 11.7156C60.7297 4.16094 50.6844 0 40 0C29.3156 0 19.2703 4.16094 11.7156 11.7156C4.16094 19.2703 0 29.3156 0 40C0 50.6844 4.16094 60.7297 11.7156 68.2844C19.2703 75.8391 29.3156 80 40 80C62.1083 80 80 62.1098 80 40C80 29.3156 75.8391 19.2703 68.2844 11.7156ZM40 4.6875C48.8937 4.6875 57.0312 7.99219 63.2453 13.4391C63.2455 13.4392 63.2456 13.4394 63.2459 13.4395L55.4266 21.2589V20.3187C55.4266 17.4578 53.1 15.1297 50.2391 15.1297H29.7609C26.9 15.1297 24.5734 17.4578 24.5734 20.3187V24.4156C24.5734 25.9622 25.2591 27.3838 26.3759 28.3463L20.9075 53.2716C20.7056 54.1923 20.6205 55.1209 20.6462 56.0392L13.4397 63.2458C13.4395 63.2456 13.4394 63.2455 13.4392 63.2452C7.99219 57.0312 4.6875 48.8937 4.6875 40C4.6875 20.5281 20.5281 4.6875 40 4.6875ZM50.7391 24.4156C50.7391 24.6812 50.5469 24.8516 50.3687 24.8984C50.3281 24.9094 50.2844 24.9156 50.2391 24.9156H29.7609C29.7156 24.9156 29.6719 24.9094 29.6297 24.8984C29.4531 24.8516 29.2609 24.6812 29.2609 24.4156V20.3187C29.2609 20.0422 29.4859 19.8172 29.7609 19.8172H50.2391C50.5141 19.8172 50.7391 20.0422 50.7391 20.3187V24.4156ZM25.4861 54.2759L27.8731 43.3953H52.1267L54.5137 54.2756C54.9486 56.2578 54.4683 58.3013 53.1948 59.8838C51.9253 61.4639 50.0323 62.3703 48.0016 62.3703H31.9969C29.9675 62.3703 28.0744 61.4636 26.8031 59.883C25.5316 58.3017 25.0517 56.2578 25.4861 54.2759ZM28.9016 38.7078L30.8991 29.603H49.1009L51.0984 38.7078H28.9016ZM40 75.3125C31.1063 75.3125 22.9688 72.0078 16.7547 66.5609C16.7545 66.5608 16.7544 66.5606 16.7541 66.5605L22.0795 61.235C22.3886 61.787 22.7458 62.3175 23.1502 62.8205C25.3159 65.5133 28.5405 67.0578 31.9969 67.0578H48.0016C51.4603 67.0578 54.685 65.513 56.8478 62.8211C59.0148 60.1283 59.833 56.6475 59.0923 53.2711L53.8659 29.4486L66.5603 16.7542C66.5605 16.7544 66.5606 16.7545 66.5608 16.7548C72.0078 22.9688 75.3125 31.1063 75.3125 40C75.3125 59.4719 59.4719 75.3125 40 75.3125Z" fill="black"/>
</g>
<defs>
<clipPath id="clip0">
<rect width="80" height="80" fill="white"/>
</clipPath>
</defs>
</svg>
