<svg width="80" height="80" viewBox="0 0 80 80" fill="none" xmlns="http://www.w3.org/2000/svg">
<path d="M71.2913 13.3512H65.5367C64.8894 13.3512 64.3649 13.8758 64.3649 14.5231C64.3649 15.1705 64.8894 15.695 65.5367 15.695H71.2913C74.8009 15.695 77.6562 18.5503 77.6562 22.06V56.5965C77.6562 59.8282 75.2295 62.5532 71.9988 62.9226C63.2107 63.9271 54.305 64.5235 45.5099 64.6972V60.9008H47.4471C48.0944 60.9008 48.619 60.3763 48.619 59.729V56.8699C55.4939 53.5641 59.8944 46.6082 59.8944 38.9359C59.8944 27.9661 50.9697 19.0414 39.9999 19.0414C29.0301 19.0414 20.1054 27.9661 20.1054 38.9359C20.1054 40.9984 20.4212 43.0343 21.044 44.9871C21.2409 45.6037 21.9001 45.944 22.5167 45.7474C23.1332 45.5507 23.4737 44.8913 23.277 44.2748C22.7276 42.5527 22.4492 40.7563 22.4492 38.9359C22.4492 29.2582 30.3224 21.3851 39.9999 21.3851C49.6774 21.3851 57.5507 29.2584 57.5507 38.9359C57.5507 45.3185 54.0986 51.1393 48.619 54.2279V49.0293H49.4216C50.8652 49.0293 52.0399 47.8548 52.0399 46.411V43.1452C52.0399 41.7017 50.8652 40.527 49.4216 40.527H45.5099V38.9829C45.5099 37.6765 44.4471 36.6137 43.1407 36.6137H36.8595C35.5531 36.6137 34.4902 37.6765 34.4902 38.9829V40.527H30.5785C29.1348 40.527 27.9601 41.7017 27.9601 43.1452V46.411C27.9601 47.8548 29.1348 49.0293 30.5785 49.0293H31.3812V54.2276C28.9206 52.8407 26.8312 50.8816 25.2745 48.4868C24.9217 47.9441 24.1957 47.7904 23.6532 48.143C23.1106 48.4959 22.9567 49.2216 23.3095 49.7643C25.3112 52.8437 28.0909 55.2874 31.3812 56.8696V59.729C31.3812 60.3763 31.9057 60.9008 32.5531 60.9008H34.4902V64.6974C25.6939 64.5236 16.7879 63.9272 8.00139 62.9227C4.76249 62.5524 2.34375 59.8205 2.34375 56.5965V22.06C2.34375 18.5503 5.19905 15.695 8.70873 15.695H23.2062C26.0024 15.695 28.5924 14.4301 30.312 12.2251C31.5843 10.5936 33.5006 9.65781 35.5695 9.65781H44.4304C46.4993 9.65781 48.4155 10.5936 49.6879 12.2253C51.4076 14.4303 53.9974 15.695 56.7936 15.695H60.8511C61.4985 15.695 62.023 15.1705 62.023 14.5231C62.023 13.8758 61.4985 13.3512 60.8511 13.3512H56.7936C54.7247 13.3512 52.8085 12.4155 51.5361 10.7837C49.8165 8.57875 47.2266 7.31406 44.4304 7.31406H35.5695C32.7732 7.31406 30.1831 8.5789 28.4637 10.7839C27.1912 12.4155 25.2751 13.3512 23.2062 13.3512H8.70873C3.90671 13.3512 0 17.258 0 22.06V56.5965C0 59.9752 1.93453 62.9413 4.80905 64.3824V68.8133C4.80905 70.9488 6.54639 72.686 8.68186 72.686H14.2208C14.8681 72.686 15.3926 72.1614 15.3926 71.5141C15.3926 70.8668 14.8681 70.3422 14.2208 70.3422H8.68186C7.83873 70.3422 7.1528 69.6563 7.1528 68.8133V65.1649C7.34467 65.1999 7.53873 65.2288 7.73514 65.2511C16.6097 66.2658 25.6054 66.8675 34.4901 67.0416V70.3422H18.9064C18.259 70.3422 17.7345 70.8668 17.7345 71.5141C17.7345 72.1614 18.259 72.686 18.9064 72.686H71.3181C73.4536 72.686 75.1908 70.9488 75.1908 68.8133V64.3825C78.0655 62.9415 80 59.9754 80 56.5966V22.06C80 17.258 76.0933 13.3512 71.2913 13.3512ZM36.8338 38.9831C36.8338 38.969 36.8452 38.9576 36.8593 38.9576H43.1405C43.1546 38.9576 43.166 38.969 43.166 38.9831V40.5271H36.8338V38.9831ZM30.3037 46.4112V43.1452C30.3037 42.9938 30.4268 42.8707 30.5784 42.8707H49.4216C49.573 42.8707 49.6962 42.9938 49.6962 43.1452V46.411C49.6962 46.5624 49.573 46.6856 49.4216 46.6856H30.5784C30.4268 46.6857 30.3037 46.5624 30.3037 46.4112ZM33.7248 49.0295H46.2752V58.5572H33.7248C33.7248 56.2165 33.7248 51.398 33.7248 49.0295ZM36.8338 70.3422V60.9008H43.166V70.3422H36.8338ZM72.847 68.8133C72.847 69.6564 72.1611 70.3422 71.3181 70.3422H45.5099V67.0415C54.3933 66.8675 63.3889 66.2658 72.2649 65.2511C72.4611 65.2286 72.6552 65.1997 72.847 65.1649V68.8133Z" fill="white"/>
<path d="M12.1537 42.1379C11.5142 42.2379 11.0768 42.8375 11.1768 43.4767C12.2059 50.0587 15.5148 56.1506 20.4937 60.6303C20.7178 60.8319 20.9979 60.9311 21.2773 60.9311C21.5979 60.9311 21.9175 60.8001 22.1487 60.5431C22.5817 60.062 22.5426 59.3211 22.0614 58.8881C17.4815 54.7676 14.4386 49.1659 13.4925 43.1148C13.3926 42.4754 12.7943 42.0379 12.1537 42.1379Z" fill="white"/>
<path d="M66.5077 43.1148C65.5615 49.1662 62.5185 54.7678 57.9388 58.8881C57.4577 59.3211 57.4186 60.062 57.8515 60.5431C58.0827 60.8003 58.4021 60.9311 58.7229 60.9311C59.0021 60.9311 59.2824 60.8319 59.5065 60.6303C64.4852 56.1508 67.7941 50.0589 68.8233 43.4767C68.9233 42.8373 68.486 42.2378 67.8465 42.1379C67.2076 42.0379 66.6079 42.4754 66.5077 43.1148Z" fill="white"/>
<path d="M35.7776 12.7145C35.1302 12.7145 34.6057 13.2391 34.6057 13.8864C34.6057 14.5338 35.1302 15.0583 35.7776 15.0583H44.2224C44.8698 15.0583 45.3943 14.5338 45.3943 13.8864C45.3943 13.2391 44.8698 12.7145 44.2224 12.7145H35.7776Z" fill="white"/>
<path d="M8.35824 21.4227C7.09433 22.6867 6.28902 24.2745 6.09074 25.8934C5.87918 27.6198 6.37136 29.1789 7.47605 30.2836C8.41324 31.2208 9.6773 31.7172 11.0929 31.7172C11.3462 31.7172 11.6042 31.7013 11.8662 31.6691C13.4851 31.4708 15.0729 30.6655 16.337 29.4016C19.0229 26.7155 19.4189 22.7405 17.219 20.5405C15.0193 18.3406 11.0445 18.7369 8.35824 21.4227ZM14.6798 27.7442C13.7842 28.64 12.6837 29.2078 11.5815 29.3427C10.5862 29.4645 9.71715 29.21 9.1334 28.6263C8.5498 28.0427 8.29527 27.1731 8.41715 26.1783C8.55199 25.0761 9.1198 23.9756 10.0156 23.08C11.0851 22.0105 12.4148 21.4423 13.5842 21.4423C14.3526 21.4423 15.052 21.688 15.5618 22.1978C16.8479 23.4838 16.4521 25.972 14.6798 27.7442Z" fill="white"/>
<path d="M72.524 30.2838C74.7236 28.0839 74.328 24.1089 71.6418 21.4227C68.9555 18.7367 64.9807 18.3403 62.7807 20.5406C60.5811 22.7405 60.9768 26.7155 63.6629 29.4016C64.9269 30.6655 66.5147 31.4708 68.1336 31.6691C68.3957 31.7013 68.6536 31.7172 68.9069 31.7172C70.3227 31.7172 71.5869 31.2208 72.524 30.2838ZM68.4186 29.3427C67.3165 29.2078 66.216 28.64 65.3204 27.7442C63.548 25.972 63.1522 23.4838 64.4382 22.198C64.9483 21.6878 65.6471 21.4423 66.4158 21.4423C67.5849 21.4423 68.9152 22.0108 69.9844 23.08C71.7569 24.8523 72.1526 27.3405 70.8666 28.6264C70.2829 29.2103 69.4124 29.4645 68.4186 29.3427Z" fill="white"/>
<path d="M38.1528 55.5389H41.8475C42.4949 55.5389 43.0194 55.0144 43.0194 54.3671C43.0194 53.7197 42.4949 53.1952 41.8475 53.1952H38.1528C37.5055 53.1952 36.981 53.7197 36.981 54.3671C36.981 55.0144 37.5055 55.5389 38.1528 55.5389Z" fill="white"/>
</svg>
