<svg width="80" height="80" viewBox="0 0 80 80" fill="none" xmlns="http://www.w3.org/2000/svg">
<g clip-path="url(#clip0)">
<g clip-path="url(#clip1)">
<path d="M50.4775 68.1223H20.6338C20.0261 68.1223 19.489 67.7274 19.3078 67.1474L12.4806 45.2724C12.3335 44.7999 12.4486 44.2845 12.7833 43.9199C13.118 43.5547 13.6221 43.3958 14.1049 43.5021L19.7999 44.7548L22.9271 39.7754C23.3079 39.1689 24.0875 38.9508 24.7277 39.2736L30.0733 41.9646L34.6366 37.9341C35.1618 37.4702 35.9501 37.4702 36.4752 37.9341L41.0385 41.9646L46.3835 39.2736C47.0232 38.9513 47.8034 39.1689 48.1842 39.7754L51.3114 44.7548L57.0064 43.5021C57.4903 43.3958 57.9938 43.5553 58.328 43.9199C58.6627 44.2845 58.7777 44.7999 58.6307 45.2724L51.8035 67.1474C51.6223 67.7274 51.0851 68.1223 50.4775 68.1223ZM21.6554 65.3446H49.4565L55.2659 46.7291L50.9533 47.678C50.3804 47.8033 49.7907 47.5565 49.4787 47.0601L46.504 42.3226L41.4481 44.8682C40.9408 45.1238 40.3294 45.0445 39.9041 44.6686L35.5556 40.828L31.2078 44.6686C30.7824 45.0445 30.171 45.1238 29.6637 44.8682L24.6073 42.3226L21.6326 47.0601C21.3206 47.5565 20.7309 47.8039 20.158 47.678L15.8454 46.7291L21.6554 65.3446Z" fill="black"/>
<path d="M50.6548 47.7106C50.1839 47.7106 49.7363 47.4708 49.4786 47.0601L46.5039 42.3226L41.4474 44.8682C40.9402 45.1238 40.3293 45.0445 39.9034 44.6686L35.5555 40.828L31.2076 44.6686C30.7823 45.0445 30.1703 45.1238 29.6636 44.8682L24.6072 42.3226L21.6324 47.0601C21.3205 47.5565 20.7307 47.8039 20.1578 47.678L13.508 46.2153C12.871 46.0748 12.4175 45.5111 12.4175 44.8585C12.4175 39.8769 13.9789 35.1319 16.9325 31.1367C19.8263 27.2212 23.7933 24.3615 28.4044 22.8652C28.7906 22.7393 29.2133 22.7903 29.56 23.003C29.9066 23.2157 30.1421 23.5699 30.205 23.972C30.619 26.6201 32.8694 28.5428 35.5555 28.5428C38.2416 28.5428 40.4915 26.6201 40.906 23.972C40.9684 23.5699 41.2044 23.2157 41.5511 23.003C41.8972 22.7903 42.3198 22.7399 42.7067 22.8652C45.167 23.6638 47.4641 24.8644 49.5339 26.4351C50.1453 26.8984 50.2647 27.7697 49.8008 28.3811C49.3375 28.992 48.4667 29.1119 47.8553 28.6481C46.4257 27.5635 44.8735 26.6792 43.2264 26.0097C42.7468 27.283 41.9525 28.4283 40.9076 29.3306C39.4216 30.6137 37.5206 31.3206 35.5555 31.3206C33.5899 31.3206 31.6894 30.6137 30.2034 29.3306C29.1579 28.4283 28.3637 27.2825 27.8846 26.0086C20.5777 28.9676 15.6494 35.8551 15.2251 43.7484L19.7998 44.7548L22.9269 39.7754C23.3078 39.1689 24.0874 38.9508 24.7276 39.2736L30.0732 41.9646L34.6364 37.9335C35.1611 37.4702 35.9499 37.4697 36.4751 37.9335L41.0378 41.9646L46.3834 39.2736C47.0231 38.9513 47.8032 39.1689 48.1841 39.7754L51.3113 44.7548L55.8859 43.7484C55.7568 41.3271 55.2034 38.9801 54.2361 36.7562C53.9301 36.0531 54.2518 35.235 54.9555 34.929C55.6586 34.623 56.4773 34.9447 56.7833 35.6484C58.0506 38.5618 58.6935 41.6602 58.6935 44.8585C58.6935 45.5106 58.2394 46.0748 57.603 46.2148L50.9532 47.678C50.8539 47.6997 50.7535 47.7106 50.6548 47.7106Z" fill="black"/>
<path d="M35.556 31.3205C31.0378 31.3205 27.3616 27.6449 27.3616 23.1266C27.3616 18.6084 31.0378 14.9327 35.556 14.9327C40.0737 14.9327 43.7494 18.6084 43.7494 23.1266C43.7494 27.6449 40.0737 31.3205 35.556 31.3205ZM35.556 17.7105C32.5694 17.7105 30.1393 20.14 30.1393 23.1266C30.1393 26.1133 32.5694 28.5428 35.556 28.5428C38.5421 28.5428 40.9716 26.1133 40.9716 23.1266C40.9716 20.14 38.5421 17.7105 35.556 17.7105Z" fill="black"/>
<path d="M26.8299 62.7094C26.1436 62.7094 25.5463 62.2 25.4546 61.5012L23.655 47.7811C23.5552 47.021 24.0912 46.3233 24.8513 46.2234C25.612 46.1231 26.3097 46.6596 26.4095 47.4197L28.2091 61.1394C28.3089 61.9005 27.7729 62.5977 27.0128 62.6975C26.9515 62.7051 26.8902 62.7094 26.8299 62.7094ZM44.2806 62.7094C44.2204 62.7094 44.1596 62.7057 44.0983 62.6975C43.3376 62.5977 42.8022 61.9005 42.902 61.1394L44.7016 47.4197C44.8014 46.6591 45.4986 46.1231 46.2592 46.2234C47.0198 46.3233 47.5553 47.0204 47.4555 47.7811L45.6559 61.5012C45.5642 62.2 44.9674 62.7094 44.2806 62.7094ZM35.5555 62.7094C34.7884 62.7094 34.1666 62.0872 34.1666 61.3206V47.6004C34.1666 46.8338 34.7884 46.2115 35.5555 46.2115C36.3227 46.2115 36.9444 46.8338 36.9444 47.6004V61.3206C36.9444 62.0872 36.3227 62.7094 35.5555 62.7094Z" fill="black"/>
<path d="M35.5556 80C26.0579 80 17.1294 76.3016 10.414 69.5861C3.69846 62.8706 0 53.9415 0 44.4445C0 34.9474 3.69846 26.0184 10.414 19.3029C17.1294 12.5874 26.0585 8.88892 35.5556 8.88892C45.0526 8.88892 53.9817 12.5874 60.6972 19.3029C67.4127 26.0184 71.1111 34.9474 71.1111 44.4445C71.1111 53.9415 67.4127 62.8706 60.6972 69.5861C53.9817 76.3016 45.0526 80 35.5556 80ZM35.5556 11.6667C26.8001 11.6667 18.5688 15.076 12.3779 21.2668C-0.402018 34.0473 -0.402018 54.8416 12.3779 67.6221C18.5688 73.813 26.8001 77.2223 35.5556 77.2223C44.3104 77.2223 52.5418 73.813 58.7326 67.6221C71.5126 54.8416 71.5126 34.0473 58.7326 21.2668C52.5418 15.076 44.311 11.6667 35.5556 11.6667Z" fill="black"/>
<path d="M59.7152 69.993C59.3593 69.993 59.0039 69.8574 58.7332 69.5861L10.414 21.2669C9.87145 20.7249 9.87145 19.8454 10.414 19.3029C10.9565 18.7604 11.8354 18.7604 12.378 19.3029L60.6972 67.6221C61.2397 68.1641 61.2397 69.0436 60.6972 69.5861C60.4259 69.8574 60.0706 69.993 59.7152 69.993Z" fill="black"/>
<path fill-rule="evenodd" clip-rule="evenodd" d="M52.6587 32.8223C53.4236 32.8223 54.0476 32.1984 54.0476 31.4334C54.0476 30.6684 53.4236 30.0445 52.6587 30.0445C51.8937 30.0445 51.2698 30.6684 51.2698 31.4334C51.2698 32.1984 51.8937 32.8223 52.6587 32.8223Z" fill="black"/>
</g>
</g>
<defs>
<clipPath id="clip0">
<rect width="80" height="80" fill="white"/>
</clipPath>
<clipPath id="clip1">
<rect width="71.1111" height="71.1111" fill="white" transform="translate(0 8.88892)"/>
</clipPath>
</defs>
</svg>
