<svg width="32" height="32" viewBox="0 0 32 32" fill="none" xmlns="http://www.w3.org/2000/svg">
<path d="M29.844 24C31.215 21.645 32 18.922 32 16C32 7.164 24.836 0 16 0C7.164 0 0 7.164 0 16C0 24.836 7.164 32 16 32C20.418 32 24.418 30.211 27.312 27.312L24.48 24.48C22.309 26.656 19.309 28 16 28C9.383 28 4 22.617 4 16C4 9.383 9.383 4 16 4C22.617 4 28 9.383 28 16C28 17.422 27.727 18.781 27.27 20.047L27.238 20H24V8.043H16C11.582 8.043 8 11.625 8 16.043C8 20.461 11.582 24.043 16 24.043C17.836 24.043 19.508 23.398 20.859 22.359C21.586 23.328 22.695 24 24 24H29.844V24ZM20 14.008V16.043C20 18.25 18.203 20.043 16 20.043C13.797 20.043 12 18.25 12 16.043C12 13.836 13.797 12.043 16 12.043H20V14.008Z" fill="#FFD973"/>
</svg>
