<svg width="32" height="32" viewBox="0 0 32 32" fill="none" xmlns="http://www.w3.org/2000/svg">
<path d="M9 18H7V32H9C9.55 32 10 31.55 10 31V19C10 18.45 9.55 18 9 18Z" fill="#FFD973"/>
<path d="M23 18C22.45 18 22 18.45 22 19V31C22 31.55 22.45 32 23 32H25V18H23Z" fill="#FFD973"/>
<path d="M32 16C32 7.163 24.837 0 16 0C7.163 0 0 7.163 0 16C0 17.919 0.338 19.759 0.958 21.464C0.349 22.502 0 23.71 0 25C0 28.526 2.608 31.443 6 31.929V18.072C5.003 18.215 4.073 18.567 3.258 19.084C3.09 18.249 3 17.385 3 16.5C3 9.32 8.82 3.5 16 3.5C23.18 3.5 29 9.32 29 16.5C29 17.385 28.912 18.249 28.743 19.084C27.927 18.567 26.998 18.214 26 18.071V31.929C29.392 31.444 32 28.527 32 25C32 23.71 31.651 22.502 31.042 21.464C31.662 19.759 32 17.919 32 15.999V16Z" fill="#FFD973"/>
</svg>
