<svg width="40" height="40" viewBox="0 0 40 40" fill="none" xmlns="http://www.w3.org/2000/svg">
<path d="M20 40C31.0457 40 40 31.0457 40 20C40 8.9543 31.0457 0 20 0C8.9543 0 0 8.9543 0 20C0 31.0457 8.9543 40 20 40Z" fill="#FFD973"/>
<path d="M19.9999 4C14.1184 4 9.33325 8.78519 9.33325 14.6667C9.33325 16.4323 9.77469 18.1829 10.6139 19.7357L19.4166 35.6562C19.5338 35.8685 19.7571 36 19.9999 36C20.2428 36 20.4661 35.8685 20.5833 35.6562L29.3893 19.7304C30.2252 18.1829 30.6666 16.4323 30.6666 14.6666C30.6666 8.78519 25.8814 4 19.9999 4ZM19.9999 20C17.0592 20 14.6666 17.6074 14.6666 14.6667C14.6666 11.7259 17.0592 9.33337 19.9999 9.33337C22.9407 9.33337 25.3333 11.7259 25.3333 14.6667C25.3333 17.6074 22.9407 20 19.9999 20Z" fill="#3B80C0"/>
</svg>
